<?xml version="1.0" encoding="UTF-8" standalone="no"?>
<!-- Created with Inkscape (http://www.inkscape.org/) -->

<svg
   xmlns:dc="http://purl.org/dc/elements/1.1/"
   xmlns:cc="http://creativecommons.org/ns#"
   xmlns:rdf="http://www.w3.org/1999/02/22-rdf-syntax-ns#"
   xmlns:svg="http://www.w3.org/2000/svg"
   xmlns="http://www.w3.org/2000/svg"
   xmlns:sodipodi="http://sodipodi.sourceforge.net/DTD/sodipodi-0.dtd"
   xmlns:inkscape="http://www.inkscape.org/namespaces/inkscape"
   width="625"
   height="350"
   viewBox="0 0 625 350"
   id="svg12163"
   version="1.1"
   inkscape:version="0.91 r13725"
   sodipodi:docname="https-1.svg">
  <defs
     id="defs12165">
    <linearGradient
       id="linearGradient272">
      <stop
         offset="0"
         style="stop-color:#474747;stop-opacity:0"
         id="stop273" />
      <stop
         offset=".1"
         style="stop-color:#474747"
         id="stop275" />
      <stop
         offset="0.9"
         style="stop-color:#474747"
         id="stop276" />
      <stop
         offset="1"
         style="stop-color:#474747;stop-opacity:0"
         id="stop274" />
    </linearGradient>
  </defs>
  <sodipodi:namedview
     id="base"
     pagecolor="#ffffff"
     bordercolor="#666666"
     borderopacity="1.0"
     inkscape:pageopacity="0.0"
     inkscape:pageshadow="2"
     inkscape:zoom="1.6704226"
     inkscape:cx="323.53953"
     inkscape:cy="115.30094"
     inkscape:document-units="px"
     inkscape:current-layer="layer1"
     showgrid="false"
     fit-margin-top="0"
     fit-margin-left="0"
     fit-margin-right="0"
     fit-margin-bottom="0"
     inkscape:window-width="1916"
     inkscape:window-height="1155"
     inkscape:window-x="4"
     inkscape:window-y="23"
     inkscape:window-maximized="1"
     units="px" />
  <metadata
     id="metadata12168">
    <rdf:RDF>
      <cc:Work
         rdf:about="">
        <dc:format>image/svg+xml</dc:format>
        <dc:type
           rdf:resource="http://purl.org/dc/dcmitype/StillImage" />
        <dc:title />
      </cc:Work>
    </rdf:RDF>
  </metadata>
  <g
     inkscape:label="Layer 1"
     inkscape:groupmode="layer"
     id="layer1"
     transform="translate(-1174.3566,593.42613)">
    <g
       transform="translate(-106.75996,-387.85703)"
       id="text4619"
       style="font-style:normal;font-weight:normal;font-size:45px;line-height:125%;font-family:sans-serif;letter-spacing:0px;word-spacing:0px;fill:#586e7f;fill-opacity:1;stroke:none;stroke-width:1px;stroke-linecap:butt;stroke-linejoin:miter;stroke-opacity:1" />
    <g
       id="g4491"
       transform="matrix(0.2285315,0,0,0.2285315,1174.0039,-459.26878)"
       style="font-style:normal;font-weight:normal;font-size:medium;line-height:125%;font-family:sans-serif;letter-spacing:0px;word-spacing:0px;fill:#586e7f;fill-opacity:0.94117647;stroke:none;stroke-width:1px;stroke-linecap:butt;stroke-linejoin:miter;stroke-opacity:1">
      <path
         id="path4493"
         style="fill:#586e7f;fill-opacity:0.94117647"
         d="m 447.42999,3.3400416 0,0.0332 118.8476,0 -8.8496,39.5273504 c -2.95,13.569 -15.3411,22.41828 -28.9101,21.23828 l -0.5899,0 c -1.77,0 -3.5391,1.77106 -3.5391,3.53906 0,1.771 1.1814,2.95117 2.3594,2.95117 l 0.5899,0 50.1465,0 11.8007,0 17.6993,0 11.2089,0 50.7364,0 0.5898,0 c 1.181,-0.59 2.3594,-1.77217 2.3594,-2.95117 0,-1.77 -1.7701,-3.53906 -3.5391,-3.53906 l -0.5898,0 c -13.569,0.59 -25.9592,-8.25928 -28.9082,-21.23828 l -8.8516,-39.5273504 151.2598,0 0,-0.0332 -333.8203,0 z M 368.63698,-333.79441 c -7.079,0 -12.38867,5.30867 -12.38867,12.38867 l 0,307.9668 c 0,7.079 5.30967,12.38867 12.38867,12.38867 l 197.64061,0 -0.006,0.0293 63.7246,0 -0.006,-0.0293 197.6406,0 c 7.08,0 12.3907,-5.30967 12.3907,-12.38867 l 0,-307.9668 c 1.181,-7.08 -4.1271,-12.38867 -11.2071,-12.38867 l -460.17771,0 z m 8.25977,19.46875 444.83794,0 0,291.44531 -0.5899,0 -444.24804,0 0,-291.44531 z m 221.32034,294.55078 a 7.5245337,7.5245337 0 0 1 7.5254,7.52344 7.5245337,7.5245337 0 0 1 -7.5254,7.52539 7.5245337,7.5245337 0 0 1 -7.5235,-7.52539 7.5245337,7.5245337 0 0 1 7.5235,-7.52344 z"
         inkscape:connector-curvature="0" />
    </g>
    <g
       id="g6946"
       transform="translate(668.23596,-116.92495)">
      <path
         inkscape:connector-curvature="0"
         id="path3626"
         style="fill:none;fill-rule:evenodd;stroke:#5e7283;stroke-width:4;stroke-linecap:round;stroke-linejoin:round;stroke-miterlimit:4;stroke-dasharray:none;stroke-opacity:0.97254902"
         inkscape:r_cy="true"
         d="m 1003.6138,-401.81712 0,67.78921 44.4456,0 0,-68.19752 -8.178,-8.57588 -28.5005,0 -7.7671,8.98419 z"
         sodipodi:nodetypes="ccccccc"
         inkscape:r_cx="true" />
      <rect
         id="rect4398"
         style="color:#000000;fill:#5e7283;fill-opacity:0.97254902;fill-rule:evenodd;stroke:#5e7283;stroke-width:1.0000267;stroke-opacity:0.97254902"
         inkscape:r_cy="true"
         inkscape:r_cx="true"
         height="8.0811939"
         width="22.222794"
         y="-370.39572"
         x="1019.7748" />
      <rect
         id="rect4430"
         style="color:#000000;fill:#5e7283;fill-opacity:0.97254902;fill-rule:evenodd;stroke:#5e7283;stroke-width:0.9999488;stroke-opacity:0.97254902"
         inkscape:r_cy="true"
         inkscape:r_cx="true"
         height="8.0811939"
         width="32.323925"
         y="-384.53775"
         x="1009.6726" />
      <rect
         id="rect4436"
         style="color:#000000;fill:#5e7283;fill-opacity:0.97254902;fill-rule:evenodd;stroke:#5e7283;stroke-width:0.9999488;stroke-opacity:0.97254902"
         inkscape:r_cy="true"
         inkscape:r_cx="true"
         height="8.0811939"
         width="32.323925"
         y="-396.65967"
         x="1009.6727" />
      <ellipse
         ry="3.0308104"
         rx="3.0308146"
         inkscape:r_cx="true"
         inkscape:r_cy="true"
         style="color:#000000;fill:#5e7283;fill-opacity:0.97254902;fill-rule:evenodd;stroke:#5e7283;stroke-width:0.99998373;stroke-opacity:0.97254902"
         id="path4396"
         cx="1012.7055"
         cy="-365.34439" />
    </g>
    <path
       style="fill:none;fill-rule:evenodd;stroke:#586d7e;stroke-width:4;stroke-linecap:butt;stroke-linejoin:miter;stroke-miterlimit:4;stroke-dasharray:none;stroke-opacity:0.94117647"
       d="m 1378.7003,-490.73081 271.1888,0"
       id="path5714"
       inkscape:connector-curvature="0" />
    <path
       sodipodi:type="star"
       style="fill:#ffffff;fill-opacity:1;stroke:#586d7e;stroke-width:6.64520264;stroke-miterlimit:4;stroke-dasharray:none;stroke-dashoffset:0;stroke-opacity:0.94117647"
       id="path5716"
       sodipodi:sides="3"
       sodipodi:cx="1303.6652"
       sodipodi:cy="-558.31653"
       sodipodi:r1="22.590645"
       sodipodi:r2="11.295323"
       sodipodi:arg1="0.52359878"
       sodipodi:arg2="1.5707963"
       inkscape:flatsided="false"
       inkscape:rounded="0"
       inkscape:randomized="0"
       d="m 1323.2292,-547.02121 -19.564,10e-6 -19.5641,-10e-6 9.782,-16.94298 9.7821,-16.94298 9.782,16.94298 z"
       inkscape:transform-center-y="4.619267e-05"
       transform="matrix(0,0.60703497,-0.59688383,0,1306.4619,-1282.1012)"
       inkscape:transform-center-x="-3.3709932" />
    <circle
       style="fill:#ffffff;fill-opacity:1;stroke:#586eff;stroke-width:4;stroke-miterlimit:4;stroke-dasharray:none;stroke-dashoffset:0;stroke-opacity:1"
       id="path5726"
       cx="1512.7981"
       cy="-489.33957"
       r="26.939291" />
    <text
       sodipodi:linespacing="125%"
       id="text5722"
       y="-474.55029"
       x="1502.5953"
       style="font-style:normal;font-weight:normal;font-size:25px;line-height:125%;font-family:sans-serif;letter-spacing:0px;word-spacing:0px;fill:#586eff;fill-opacity:1;stroke:none;stroke-width:1px;stroke-linecap:butt;stroke-linejoin:miter;stroke-opacity:1;"
       xml:space="preserve"><tspan
         style="font-style:normal;font-variant:normal;font-weight:normal;font-stretch:condensed;font-size:40px;font-family:'Arial Narrow';-inkscape-font-specification:'Arial Narrow Condensed';fill:#586eff;fill-opacity:1;"
         y="-474.55029"
         x="1502.5953"
         id="tspan5724"
         sodipodi:role="line">1</tspan></text>
    <text
       sodipodi:linespacing="125%"
       id="text5728"
       y="-389.7189"
       x="1486.8859"
       style="font-style:normal;font-weight:normal;font-size:25px;line-height:125%;font-family:sans-serif;letter-spacing:0px;word-spacing:0px;fill:#586eff;fill-opacity:1;stroke:none;stroke-width:1px;stroke-linecap:butt;stroke-linejoin:miter;stroke-opacity:1;"
       xml:space="preserve"><tspan
         style="font-style:normal;font-variant:normal;font-weight:normal;font-stretch:condensed;font-size:40px;font-family:'Arial Narrow';-inkscape-font-specification:'Arial Narrow Condensed';text-align:center;text-anchor:middle;fill:#586eff;fill-opacity:1;"
         y="-389.7189"
         x="1486.8859"
         id="tspan5730"
         sodipodi:role="line">&quot;Please identify yourself...&quot;</tspan></text>
  </g>
</svg>
