<?xml version="1.0" encoding="UTF-8" standalone="no"?>
<!-- Created with Inkscape (http://www.inkscape.org/) -->

<svg
   xmlns:dc="http://purl.org/dc/elements/1.1/"
   xmlns:cc="http://creativecommons.org/ns#"
   xmlns:rdf="http://www.w3.org/1999/02/22-rdf-syntax-ns#"
   xmlns:svg="http://www.w3.org/2000/svg"
   xmlns="http://www.w3.org/2000/svg"
   xmlns:sodipodi="http://sodipodi.sourceforge.net/DTD/sodipodi-0.dtd"
   xmlns:inkscape="http://www.inkscape.org/namespaces/inkscape"
   width="625"
   height="350"
   viewBox="0 0 625 350"
   id="svg12163"
   version="1.1"
   inkscape:version="0.91 r13725"
   sodipodi:docname="lan.svg">
  <defs
     id="defs12165" />
  <sodipodi:namedview
     id="base"
     pagecolor="#ffffff"
     bordercolor="#666666"
     borderopacity="1.0"
     inkscape:pageopacity="0.0"
     inkscape:pageshadow="2"
     inkscape:zoom="1"
     inkscape:cx="193.52998"
     inkscape:cy="175.07138"
     inkscape:document-units="px"
     inkscape:current-layer="layer1"
     showgrid="false"
     fit-margin-top="0"
     fit-margin-left="0"
     fit-margin-right="0"
     fit-margin-bottom="0"
     inkscape:window-width="1916"
     inkscape:window-height="1155"
     inkscape:window-x="4"
     inkscape:window-y="23"
     inkscape:window-maximized="1"
     units="px" />
  <metadata
     id="metadata12168">
    <rdf:RDF>
      <cc:Work
         rdf:about="">
        <dc:format>image/svg+xml</dc:format>
        <dc:type
           rdf:resource="http://purl.org/dc/dcmitype/StillImage" />
        <dc:title></dc:title>
      </cc:Work>
    </rdf:RDF>
  </metadata>
  <g
     inkscape:label="Layer 1"
     inkscape:groupmode="layer"
     id="layer1"
     transform="translate(-1174.3566,593.42613)">
    <rect
       y="-593.42609"
       x="1174.3566"
       height="350"
       width="387"
       id="rect4601"
       style="fill:#ffffff;fill-opacity:1;stroke:none;stroke-width:4;stroke-miterlimit:4;stroke-dasharray:none;stroke-opacity:1" />
    <rect
       style="fill:#ffffff;fill-opacity:1;stroke:none;stroke-width:4;stroke-miterlimit:4;stroke-dasharray:none;stroke-opacity:1"
       id="rect4611"
       width="54.950256"
       height="131.63795"
       x="1561.3566"
       y="-375.06403" />
    <rect
       y="-593.42609"
       x="1561.3566"
       height="183.31226"
       width="55.09927"
       id="rect4613"
       style="fill:#ffffff;fill-opacity:1;stroke:none;stroke-width:4;stroke-miterlimit:4;stroke-dasharray:none;stroke-opacity:1" />
    <path
       inkscape:connector-curvature="0"
       id="path4546"
       d="m 1680.5695,-382.42602 118.8432,0"
       style="fill:none;fill-rule:evenodd;stroke:#586e7f;stroke-width:4;stroke-linecap:butt;stroke-linejoin:miter;stroke-miterlimit:4;stroke-dasharray:none;stroke-opacity:1" />
    <path
       id="path730"
       d="m 1592.6999,-459.45466 c 2.1665,0 3.9188,1.40513 3.9188,3.14236 l 0,44.68667 c 0,1.73723 -1.7521,3.14227 -3.9188,3.14227 -2.1615,0 -3.9189,-1.40495 -3.9189,-3.14227 l 0,-44.68667 c 0,-1.73723 1.7575,-3.14236 3.9189,-3.14236"
       style="fill:#586e7f;fill-opacity:1;fill-rule:evenodd;stroke:none;stroke-width:1.25;stroke-linejoin:round;stroke-miterlimit:10;stroke-opacity:0.94117647"
       inkscape:connector-curvature="0" />
    <path
       sodipodi:nodetypes="ccccc"
       id="path732"
       d="m 1561.5013,-410.15202 120,0 0,35 -120,0 z"
       style="fill:none;fill-opacity:1;fill-rule:evenodd;stroke:#586e7f;stroke-width:4;stroke-miterlimit:10;stroke-dasharray:none;stroke-opacity:1"
       inkscape:connector-curvature="0" />
    <path
       id="path742"
       d="m 1656.961,-386.65202 c 0,5.80081 -8.7078,5.80081 -8.7078,0 0,-5.80081 8.7078,-5.80081 8.7078,0"
       style="fill:none;fill-rule:evenodd;stroke:#586e7f;stroke-width:4;stroke-miterlimit:10;stroke-dasharray:none;stroke-opacity:0.94117647"
       inkscape:connector-curvature="0" />
    <path
       inkscape:connector-curvature="0"
       style="fill:none;fill-rule:evenodd;stroke:#586e7f;stroke-width:4;stroke-miterlimit:10;stroke-dasharray:none;stroke-opacity:0.94117647"
       d="m 1674.3715,-386.65202 c 0,5.80081 -8.7079,5.80081 -8.7079,0 0,-5.80081 8.7079,-5.80081 8.7079,0"
       id="path4471" />
    <path
       sodipodi:nodetypes="cc"
       inkscape:connector-curvature="0"
       style="fill:#586e75;fill-opacity:1;fill-rule:evenodd;stroke:#586e7f;stroke-width:4;stroke-miterlimit:10;stroke-dasharray:none;stroke-opacity:1"
       d="m 1572.5838,-401.35036 52.222,0"
       id="path4473" />
    <path
       id="path4475"
       d="m 1572.5838,-383.35036 52.222,0"
       style="fill:#586e75;fill-opacity:1;fill-rule:evenodd;stroke:#586e7f;stroke-width:4;stroke-miterlimit:10;stroke-dasharray:none;stroke-opacity:1"
       inkscape:connector-curvature="0"
       sodipodi:nodetypes="cc" />
    <path
       sodipodi:nodetypes="cc"
       inkscape:connector-curvature="0"
       style="fill:#586e75;fill-opacity:1;fill-rule:evenodd;stroke:#586e7f;stroke-width:4;stroke-miterlimit:10;stroke-dasharray:none;stroke-opacity:1"
       d="m 1572.5838,-392.35036 52.222,0"
       id="path4477" />
    <path
       sodipodi:nodetypes="ccc"
       inkscape:connector-curvature="0"
       id="path4536"
       d="m 1574.8972,-472.51142 c -2.3188,4.2338 -3.5165,8.69715 -3.541,13.19649 0.023,5.31992 1.6859,10.58171 4.8887,15.46817"
       style="fill:none;fill-opacity:1;stroke:#586e7f;stroke-width:6.00000048;stroke-miterlimit:10;stroke-dasharray:none;stroke-opacity:1" />
    <path
       sodipodi:nodetypes="ccc"
       inkscape:connector-curvature="0"
       id="path4534"
       d="m 1556.1054,-478.84672 c -3.5485,6.24936 -5.3834,12.8621 -5.4199,19.53179 0.028,7.49107 2.3256,14.9036 6.7578,21.80603"
       style="fill:none;fill-opacity:1;stroke:#586e7f;stroke-width:6.00000048;stroke-miterlimit:10;stroke-dasharray:none;stroke-opacity:1" />
    <path
       sodipodi:nodetypes="ccc"
       inkscape:connector-curvature="0"
       id="circle4520"
       d="m 1535.4363,-484.45086 c -4.6372,8.03181 -7.0355,16.54617 -7.0801,25.13593 0.033,9.41191 2.8914,18.7272 8.4121,27.41274"
       style="fill:none;fill-opacity:1;stroke:#586e7f;stroke-width:6.00000048;stroke-miterlimit:10;stroke-dasharray:none;stroke-opacity:1" />
    <g
       style="font-style:normal;font-weight:normal;font-size:25px;line-height:125%;font-family:sans-serif;letter-spacing:0px;word-spacing:0px;fill:#586e7f;fill-opacity:1;stroke:none;stroke-width:1px;stroke-linecap:butt;stroke-linejoin:miter;stroke-opacity:1"
       id="text4615">
      <path
         d="m 1634.085,-346.26111 4.0283,0 0,-13.90381 -4.3823,0.87891 0,-2.24609 4.3579,-0.87891 2.4658,0 0,16.1499 4.0283,0 0,2.0752 -10.498,0 0,-2.0752 z"
         style="font-size:25px;fill:#586e7f;fill-opacity:1"
         id="path4720" />
      <path
         d="m 1656.3506,-360.26257 -6.2256,9.729 6.2256,0 0,-9.729 z m -0.647,-2.14844 3.1006,0 0,11.87744 2.6001,0 0,2.05078 -2.6001,0 0,4.29688 -2.4536,0 0,-4.29688 -8.2276,0 0,-2.38037 7.5806,-11.54785 z"
         style="font-size:25px;fill:#586e7f;fill-opacity:1"
         id="path4722" />
      <path
         d="m 1672.9644,-354.01257 q 1.77,0.37841 2.7587,1.5747 1.001,1.19629 1.001,2.95411 0,2.69775 -1.8554,4.1748 -1.8555,1.47705 -5.2735,1.47705 -1.1474,0 -2.3681,-0.23193 -1.2085,-0.21973 -2.5025,-0.67139 l 0,-2.38037 q 1.0254,0.59814 2.2461,0.90332 1.2207,0.30518 2.5513,0.30518 2.3193,0 3.5278,-0.91553 1.2207,-0.91553 1.2207,-2.66113 0,-1.61133 -1.1352,-2.51465 -1.1231,-0.91553 -3.1373,-0.91553 l -2.124,0 0,-2.02637 2.2217,0 q 1.8189,0 2.7832,-0.72021 0.9644,-0.73242 0.9644,-2.09961 0,-1.40381 -1.001,-2.14844 -0.9888,-0.75684 -2.8443,-0.75684 -1.0131,0 -2.1728,0.21973 -1.1597,0.21973 -2.5513,0.6836 l 0,-2.19727 q 1.4038,-0.39063 2.6245,-0.58594 1.2329,-0.19531 2.3194,-0.19531 2.8076,0 4.4433,1.28174 1.6358,1.26953 1.6358,3.44238 0,1.51367 -0.8667,2.56348 -0.8667,1.03759 -2.4658,1.44043 z"
         style="font-size:25px;fill:#586e7f;fill-opacity:1"
         id="path4724" />
      <path
         d="m 1681.4116,-347.2865 2.5757,0 0,3.10059 -2.5757,0 0,-3.10059 z"
         style="font-size:25px;fill:#586e7f;fill-opacity:1"
         id="path4726" />
      <path
         d="m 1689.7979,-346.26111 4.0283,0 0,-13.90381 -4.3824,0.87891 0,-2.24609 4.358,-0.87891 2.4658,0 0,16.1499 4.0283,0 0,2.0752 -10.498,0 0,-2.0752 z"
         style="font-size:25px;fill:#586e7f;fill-opacity:1"
         id="path4728" />
      <path
         d="m 1705.2886,-347.2865 2.5757,0 0,3.10059 -2.5757,0 0,-3.10059 z"
         style="font-size:25px;fill:#586e7f;fill-opacity:1"
         id="path4730" />
      <path
         d="m 1720.7183,-354.01257 q 1.77,0.37841 2.7588,1.5747 1.0009,1.19629 1.0009,2.95411 0,2.69775 -1.8554,4.1748 -1.8555,1.47705 -5.2735,1.47705 -1.1474,0 -2.3681,-0.23193 -1.2085,-0.21973 -2.5025,-0.67139 l 0,-2.38037 q 1.0254,0.59814 2.2461,0.90332 1.2207,0.30518 2.5513,0.30518 2.3193,0 3.5278,-0.91553 1.2207,-0.91553 1.2207,-2.66113 0,-1.61133 -1.1352,-2.51465 -1.1231,-0.91553 -3.1372,-0.91553 l -2.1241,0 0,-2.02637 2.2217,0 q 1.8189,0 2.7832,-0.72021 0.9644,-0.73242 0.9644,-2.09961 0,-1.40381 -1.001,-2.14844 -0.9888,-0.75684 -2.8442,-0.75684 -1.0132,0 -2.1729,0.21973 -1.1597,0.21973 -2.5513,0.6836 l 0,-2.19727 q 1.4038,-0.39063 2.6245,-0.58594 1.233,-0.19531 2.3194,-0.19531 2.8076,0 4.4433,1.28174 1.6358,1.26953 1.6358,3.44238 0,1.51367 -0.8667,2.56348 -0.8667,1.03759 -2.4658,1.44043 z"
         style="font-size:25px;fill:#586e7f;fill-opacity:1"
         id="path4732" />
      <path
         d="m 1735.9404,-360.26257 -6.2256,9.729 6.2256,0 0,-9.729 z m -0.6469,-2.14844 3.1005,0 0,11.87744 2.6001,0 0,2.05078 -2.6001,0 0,4.29688 -2.4536,0 0,-4.29688 -8.2275,0 0,-2.38037 7.5806,-11.54785 z"
         style="font-size:25px;fill:#586e7f;fill-opacity:1"
         id="path4734" />
      <path
         d="m 1745.0835,-347.2865 2.5757,0 0,3.10059 -2.5757,0 0,-3.10059 z"
         style="font-size:25px;fill:#586e7f;fill-opacity:1"
         id="path4736" />
      <path
         d="m 1758.6211,-354.28113 q -1.6602,0 -2.6367,1.13526 -0.9644,1.13525 -0.9644,3.11279 0,1.96533 0.9644,3.11279 0.9765,1.13526 2.6367,1.13526 1.6602,0 2.6245,-1.13526 0.9766,-1.14746 0.9766,-3.11279 0,-1.97754 -0.9766,-3.11279 -0.9643,-1.13526 -2.6245,-1.13526 z m 4.895,-7.72705 0,2.2461 q -0.9277,-0.43946 -1.8799,-0.67139 -0.9399,-0.23194 -1.8676,-0.23194 -2.4415,0 -3.7354,1.64795 -1.2817,1.64795 -1.4648,4.98047 0.7202,-1.06201 1.8066,-1.62353 1.0864,-0.57373 2.3926,-0.57373 2.7466,0 4.3335,1.67236 1.5991,1.66016 1.5991,4.52881 0,2.80762 -1.6602,4.50439 -1.6601,1.69678 -4.4189,1.69678 -3.1616,0 -4.834,-2.41699 -1.6724,-2.4292 -1.6724,-7.03125 0,-4.32129 2.0508,-6.88477 2.0508,-2.57568 5.5054,-2.57568 0.9277,0 1.8677,0.1831 0.9521,0.18311 1.9775,0.54932 z"
         style="font-size:25px;fill:#586e7f;fill-opacity:1"
         id="path4738" />
      <path
         d="m 1771.0845,-346.26111 8.6059,0 0,2.0752 -11.5722,0 0,-2.0752 q 1.4038,-1.45264 3.8208,-3.89404 2.4292,-2.45361 3.0517,-3.16162 1.1841,-1.33057 1.648,-2.2461 0.476,-0.92773 0.476,-1.81884 0,-1.45264 -1.0253,-2.36817 -1.0132,-0.91553 -2.649,-0.91553 -1.1596,0 -2.4536,0.40284 -1.2817,0.40283 -2.7466,1.2207 l 0,-2.49023 q 1.4893,-0.59815 2.7832,-0.90332 1.294,-0.30518 2.3682,-0.30518 2.832,0 4.5166,1.41602 1.6846,1.41601 1.6846,3.78417 0,1.12305 -0.4273,2.13624 -0.415,1.00097 -1.5259,2.36816 -0.3051,0.354 -1.9409,2.05078 -1.6357,1.68457 -4.6142,4.72412 z"
         style="font-size:25px;fill:#586e7f;fill-opacity:1"
         id="path4740" />
    </g>
    <g
       style="font-style:normal;font-weight:normal;font-size:45px;line-height:125%;font-family:sans-serif;letter-spacing:0px;word-spacing:0px;fill:#586e7f;fill-opacity:1;stroke:none;stroke-width:1px;stroke-linecap:butt;stroke-linejoin:miter;stroke-opacity:1"
       id="text4619">
      <path
         d="m 1267.1134,-269.92126 7.251,0 0,-25.02686 -7.8882,1.58203 0,-4.04297 7.8442,-1.58203 4.4385,0 0,29.06983 7.251,0 0,3.73535 -18.8965,0 0,-3.73535 z"
         style="font-size:45px;fill:#586e7f;fill-opacity:1"
         id="path4697" />
      <path
         d="m 1295.1285,-266.86707 0,-4.04296 q 1.67,0.79101 3.3838,1.20849 1.7139,0.41748 3.3618,0.41748 4.3946,0 6.7017,-2.94433 2.3291,-2.96631 2.6587,-8.98682 -1.2744,1.88965 -3.23,2.90039 -1.9555,1.01074 -4.3286,1.01074 -4.9219,0 -7.8003,-2.96631 -2.8564,-2.98828 -2.8564,-8.15185 0,-5.05371 2.9882,-8.10791 2.9883,-3.0542 7.9541,-3.0542 5.691,0 8.6792,4.37256 3.0103,4.35058 3.0103,12.65625 0,7.75635 -3.6914,12.39258 -3.6694,4.61425 -9.8877,4.61425 -1.6699,0 -3.3838,-0.32959 -1.7139,-0.32959 -3.5596,-0.98877 z m 8.833,-13.90869 q 2.9883,0 4.7242,-2.04345 1.7578,-2.04346 1.7578,-5.60303 0,-3.5376 -1.7578,-5.58106 -1.7359,-2.06543 -4.7242,-2.06543 -2.9882,0 -4.746,2.06543 -1.7359,2.04346 -1.7359,5.58106 0,3.55957 1.7359,5.60303 1.7578,2.04345 4.746,2.04345 z"
         style="font-size:45px;fill:#586e7f;fill-opacity:1"
         id="path4699" />
      <path
         d="m 1327.4723,-269.92126 15.4907,0 0,3.73535 -20.8301,0 0,-3.73535 q 2.5269,-2.61475 6.8775,-7.00928 4.3725,-4.41651 5.4931,-5.69092 2.1314,-2.39502 2.9663,-4.04297 0.857,-1.66992 0.857,-3.27392 0,-2.61475 -1.8457,-4.2627 -1.8238,-1.64795 -4.7681,-1.64795 -2.0874,0 -4.4165,0.7251 -2.3071,0.7251 -4.9438,2.19726 l 0,-4.48242 q 2.6806,-1.07666 5.0097,-1.62597 2.3291,-0.54932 4.2627,-0.54932 5.0977,0 8.1299,2.54883 3.0322,2.54883 3.0322,6.81152 0,2.02149 -0.769,3.84522 -0.7471,1.80175 -2.7466,4.26269 -0.5493,0.63721 -3.4936,3.69141 -2.9444,3.03222 -8.3057,8.50342 z"
         style="font-size:45px;fill:#586e7f;fill-opacity:1"
         id="path4701" />
      <path
         d="m 1352.3014,-271.76697 4.6362,0 0,5.58106 -4.6362,0 0,-5.58106 z"
         style="font-size:45px;fill:#586e7f;fill-opacity:1"
         id="path4703" />
      <path
         d="m 1367.3966,-269.92126 7.251,0 0,-25.02686 -7.8882,1.58203 0,-4.04297 7.8442,-1.58203 4.4385,0 0,29.06983 7.251,0 0,3.73535 -18.8965,0 0,-3.73535 z"
         style="font-size:45px;fill:#586e7f;fill-opacity:1"
         id="path4705" />
      <path
         d="m 1405.3214,-284.3573 q -2.9883,0 -4.7461,2.04346 -1.7358,2.04345 -1.7358,5.60302 0,3.5376 1.7358,5.60303 1.7578,2.04346 4.7461,2.04346 2.9883,0 4.7241,-2.04346 1.7578,-2.06543 1.7578,-5.60303 0,-3.55957 -1.7578,-5.60302 -1.7358,-2.04346 -4.7241,-2.04346 z m 8.811,-13.90869 0,4.04297 q -1.6699,-0.79102 -3.3837,-1.2085 -1.6919,-0.41748 -3.3619,-0.41748 -4.3945,0 -6.7236,2.96631 -2.3071,2.96631 -2.6367,8.96484 1.2964,-1.91162 3.2519,-2.92236 1.9556,-1.03271 4.3067,-1.03271 4.9438,0 7.8003,3.01025 2.8784,2.98828 2.8784,8.15185 0,5.05372 -2.9883,8.10791 -2.9883,3.0542 -7.9541,3.0542 -5.6909,0 -8.7012,-4.35058 -3.0102,-4.37256 -3.0102,-12.65625 0,-7.77832 3.6914,-12.39258 3.6914,-4.63623 9.9097,-4.63623 1.6699,0 3.3618,0.32959 1.7138,0.32959 3.5595,0.98877 z"
         style="font-size:45px;fill:#586e7f;fill-opacity:1"
         id="path4707" />
      <path
         d="m 1433.4244,-281.76453 q -3.164,0 -4.9878,1.6919 -1.8017,1.69189 -1.8017,4.6582 0,2.96631 1.8017,4.6582 1.8238,1.6919 4.9878,1.6919 3.1641,0 4.9878,-1.6919 1.8238,-1.71386 1.8238,-4.6582 0,-2.96631 -1.8238,-4.6582 -1.8017,-1.6919 -4.9878,-1.6919 z m -4.4384,-1.88964 q -2.8565,-0.70313 -4.4605,-2.6587 -1.582,-1.95556 -1.582,-4.76806 0,-3.93311 2.7905,-6.21826 2.8125,-2.28516 7.6904,-2.28516 4.8999,0 7.6905,2.28516 2.7905,2.28515 2.7905,6.21826 0,2.8125 -1.604,4.76806 -1.582,1.95557 -4.4165,2.6587 3.208,0.74707 4.9878,2.92236 1.8017,2.17529 1.8017,5.31738 0,4.76807 -2.9223,7.3169 -2.9004,2.54882 -8.3277,2.54882 -5.4272,0 -8.3496,-2.54882 -2.9004,-2.54883 -2.9004,-7.3169 0,-3.14209 1.8018,-5.31738 1.8018,-2.17529 5.0098,-2.92236 z m -1.626,-7.00928 q 0,2.54883 1.582,3.97705 1.604,1.42822 4.4824,1.42822 2.8565,0 4.4605,-1.42822 1.626,-1.42822 1.626,-3.97705 0,-2.54883 -1.626,-3.97705 -1.604,-1.42823 -4.4605,-1.42823 -2.8784,0 -4.4824,1.42823 -1.582,1.42822 -1.582,3.97705 z"
         style="font-size:45px;fill:#586e7f;fill-opacity:1"
         id="path4709" />
      <path
         d="m 1452.5846,-271.76697 4.6362,0 0,5.58106 -4.6362,0 0,-5.58106 z"
         style="font-size:45px;fill:#586e7f;fill-opacity:1"
         id="path4711" />
      <path
         d="m 1467.6798,-269.92126 7.251,0 0,-25.02686 -7.8882,1.58203 0,-4.04297 7.8442,-1.58203 4.4385,0 0,29.06983 7.251,0 0,3.73535 -18.8965,0 0,-3.73535 z"
         style="font-size:45px;fill:#586e7f;fill-opacity:1"
         id="path4713" />
      <path
         d="m 1495.5631,-271.76697 4.6362,0 0,5.58106 -4.6362,0 0,-5.58106 z"
         style="font-size:45px;fill:#586e7f;fill-opacity:1"
         id="path4715" />
      <path
         d="m 1526.2369,-293.58582 -7.8881,4.2627 7.8881,4.28467 -1.2744,2.15332 -7.3828,-4.46045 0,8.28369 -2.5049,0 0,-8.28369 -7.3828,4.46045 -1.2744,-2.15332 7.8882,-4.28467 -7.8882,-4.2627 1.2744,-2.17529 7.3828,4.46045 0,-8.28369 2.5049,0 0,8.28369 7.3828,-4.46045 1.2744,2.17529 z"
         style="font-size:45px;fill:#586e7f;fill-opacity:1"
         id="path4717" />
    </g>
    <path
       style="fill:#586e7f;fill-opacity:0.94117647"
       d="m 1416.323,-490.96283 c -1.6439,0 -2.9668,1.32287 -2.9668,2.9668 l 0,0.875 0,47.85351 0,0.875 c 0,1.64392 1.3229,2.9668 2.9668,2.9668 l 37.7949,0 c 1.6439,0 2.9668,-1.32288 2.9668,-2.9668 l 0,-0.875 0,-47.85351 0,-0.875 c 0,-1.64393 -1.3229,-2.9668 -2.9668,-2.9668 l -37.7949,0 z m 1.4453,4.8789 34.4883,0 0,43.7793 -34.4883,0 0,-43.7793 z m 17.4531,45.03321 a 2.0986359,2.0986359 0 0 1 2.0977,2.09961 2.0986359,2.0986359 0 0 1 -2.0977,2.09765 2.0986359,2.0986359 0 0 1 -2.0996,-2.09765 2.0986359,2.0986359 0 0 1 2.0996,-2.09961 z"
       id="rect11665"
       inkscape:connector-curvature="0" />
    <path
       style="fill:#586e7f;fill-opacity:0.94117647"
       d="m 1224.6531,-468.48041 c -1.6915,0.009 -2.0259,2.42829 -2.0918,3.18359 l -0.027,0 0,0.32813 -0.1777,23.81836 0,0.23242 0,0.20703 0,0.23242 0.027,0 c 0.051,0.57583 0.3655,3.03726 2.1329,3.04688 l 13.6503,0 c 1.9895,-0.0108 1.9688,-3.33399 1.9688,-3.33399 l -0.014,0 0,-0.13671 c 0.01,-0.17292 0.014,-0.30274 0.014,-0.30274 l -0.014,0 0.055,-23.54297 c 0,0 3e-4,-0.0922 0,-0.10937 l 0,-0.0137 0,-0.31641 c 0,0 3e-4,-0.0922 0,-0.10938 -0.01,-0.31067 -0.1249,-3.17331 -2.0098,-3.18359 -1.9259,-0.0105 -4.525,-0.003 -6.9687,0 -2.3099,-0.003 -4.7361,-0.01 -6.5449,0 z m 4.7949,1.85156 3.8574,0 0.9356,1.76563 3.3086,0 0,22.72461 -12.295,0 0,-22.72461 3.2774,0 0.916,-1.76563 z m 1.8613,25.11914 a 1.6905272,1.6905272 0 0 1 1.6895,1.69141 1.6905272,1.6905272 0 0 1 -1.6895,1.68945 1.6905272,1.6905272 0 0 1 -1.6914,-1.68945 1.6905272,1.6905272 0 0 1 1.6914,-1.69141 z"
       id="path11691"
       inkscape:connector-curvature="0" />
    <g
       id="g4306"
       transform="matrix(0.32743772,0,0,0.32743772,1131.7049,-460.55267)"
       style="fill:#586e7f;fill-opacity:0.94117647">
      <path
         id="path12116"
         style="fill:#586e7f;fill-opacity:0.94117647"
         d="m 447.42999,3.3400416 0,0.0332 118.8476,0 -8.8496,39.5273504 c -2.95,13.569 -15.3411,22.41828 -28.9101,21.23828 l -0.5899,0 c -1.77,0 -3.5391,1.77106 -3.5391,3.53906 0,1.771 1.1814,2.95117 2.3594,2.95117 l 0.5899,0 50.1465,0 11.8007,0 17.6993,0 11.2089,0 50.7364,0 0.5898,0 c 1.181,-0.59 2.3594,-1.77217 2.3594,-2.95117 0,-1.77 -1.7701,-3.53906 -3.5391,-3.53906 l -0.5898,0 c -13.569,0.59 -25.9592,-8.25928 -28.9082,-21.23828 l -8.8516,-39.5273504 151.2598,0 0,-0.0332 -333.8203,0 z M 368.63698,-333.79441 c -7.079,0 -12.38867,5.30867 -12.38867,12.38867 l 0,307.9668 c 0,7.079 5.30967,12.38867 12.38867,12.38867 l 197.64061,0 -0.006,0.0293 63.7246,0 -0.006,-0.0293 197.6406,0 c 7.08,0 12.3907,-5.30967 12.3907,-12.38867 l 0,-307.9668 c 1.181,-7.08 -4.1271,-12.38867 -11.2071,-12.38867 l -460.17771,0 z m 8.25977,19.46875 444.83794,0 0,291.44531 -0.5899,0 -444.24804,0 0,-291.44531 z m 221.32034,294.55078 a 7.5245337,7.5245337 0 0 1 7.5254,7.52344 7.5245337,7.5245337 0 0 1 -7.5254,7.52539 7.5245337,7.5245337 0 0 1 -7.5235,-7.52539 7.5245337,7.5245337 0 0 1 7.5235,-7.52344 z"
         inkscape:connector-curvature="0" />
    </g>
    <path
       inkscape:connector-curvature="0"
       id="path4489"
       d="m 1200.6531,-468.48041 c -1.6915,0.009 -2.0259,2.42829 -2.0918,3.18359 l -0.027,0 0,0.32813 -0.1777,23.81836 0,0.23242 0,0.20703 0,0.23242 0.027,0 c 0.051,0.57583 0.3655,3.03726 2.1329,3.04688 l 13.6503,0 c 1.9895,-0.0108 1.9688,-3.33399 1.9688,-3.33399 l -0.014,0 0,-0.13671 c 0.01,-0.17292 0.014,-0.30274 0.014,-0.30274 l -0.014,0 0.055,-23.54297 c 0,0 3e-4,-0.0922 0,-0.10937 l 0,-0.0137 0,-0.31641 c 0,0 3e-4,-0.0922 0,-0.10938 -0.01,-0.31067 -0.1249,-3.17331 -2.0098,-3.18359 -1.9259,-0.0105 -4.525,-0.003 -6.9687,0 -2.3099,-0.003 -4.7361,-0.01 -6.5449,0 z m 4.7949,1.85156 3.8574,0 0.9356,1.76563 3.3086,0 0,22.72461 -12.295,0 0,-22.72461 3.2774,0 0.916,-1.76563 z m 1.8613,25.11914 a 1.6905272,1.6905272 0 0 1 1.6895,1.69141 1.6905272,1.6905272 0 0 1 -1.6895,1.68945 1.6905272,1.6905272 0 0 1 -1.6914,-1.68945 1.6905272,1.6905272 0 0 1 1.6914,-1.69141 z"
       style="fill:#586e7f;fill-opacity:0.94117647" />
    <g
       style="fill:#586e7f;fill-opacity:0.94117647"
       transform="matrix(0.2285315,0,0,0.2285315,1211.9401,-338.56701)"
       id="g4491">
      <path
         inkscape:connector-curvature="0"
         d="m 447.42999,3.3400416 0,0.0332 118.8476,0 -8.8496,39.5273504 c -2.95,13.569 -15.3411,22.41828 -28.9101,21.23828 l -0.5899,0 c -1.77,0 -3.5391,1.77106 -3.5391,3.53906 0,1.771 1.1814,2.95117 2.3594,2.95117 l 0.5899,0 50.1465,0 11.8007,0 17.6993,0 11.2089,0 50.7364,0 0.5898,0 c 1.181,-0.59 2.3594,-1.77217 2.3594,-2.95117 0,-1.77 -1.7701,-3.53906 -3.5391,-3.53906 l -0.5898,0 c -13.569,0.59 -25.9592,-8.25928 -28.9082,-21.23828 l -8.8516,-39.5273504 151.2598,0 0,-0.0332 -333.8203,0 z M 368.63698,-333.79441 c -7.079,0 -12.38867,5.30867 -12.38867,12.38867 l 0,307.9668 c 0,7.079 5.30967,12.38867 12.38867,12.38867 l 197.64061,0 -0.006,0.0293 63.7246,0 -0.006,-0.0293 197.6406,0 c 7.08,0 12.3907,-5.30967 12.3907,-12.38867 l 0,-307.9668 c 1.181,-7.08 -4.1271,-12.38867 -11.2071,-12.38867 l -460.17771,0 z m 8.25977,19.46875 444.83794,0 0,291.44531 -0.5899,0 -444.24804,0 0,-291.44531 z m 221.32034,294.55078 a 7.5245337,7.5245337 0 0 1 7.5254,7.52344 7.5245337,7.5245337 0 0 1 -7.5254,7.52539 7.5245337,7.5245337 0 0 1 -7.5235,-7.52539 7.5245337,7.5245337 0 0 1 7.5235,-7.52344 z"
         style="fill:#586e7f;fill-opacity:0.94117647"
         id="path4493" />
    </g>
    <path
       inkscape:connector-curvature="0"
       id="path4495"
       d="m 1414.6531,-379.48041 c -1.6915,0.009 -2.0259,2.42829 -2.0918,3.18359 l -0.027,0 0,0.32813 -0.1777,23.81836 0,0.23242 0,0.20703 0,0.23242 0.027,0 c 0.051,0.57583 0.3655,3.03726 2.1329,3.04688 l 13.6503,0 c 1.9895,-0.0108 1.9688,-3.33399 1.9688,-3.33399 l -0.014,0 0,-0.13671 c 0.01,-0.17292 0.014,-0.30274 0.014,-0.30274 l -0.014,0 0.055,-23.54297 c 0,0 3e-4,-0.0922 0,-0.10937 l 0,-0.0137 0,-0.31641 c 0,0 3e-4,-0.0922 0,-0.10938 -0.01,-0.31067 -0.1249,-3.17331 -2.0098,-3.18359 -1.9259,-0.0105 -4.525,-0.003 -6.9687,0 -2.3099,-0.003 -4.7361,-0.01 -6.5449,0 z m 4.7949,1.85156 3.8574,0 0.9356,1.76563 3.3086,0 0,22.72461 -12.295,0 0,-22.72461 3.2774,0 0.916,-1.76563 z m 1.8613,25.11914 a 1.6905272,1.6905272 0 0 1 1.6895,1.69141 1.6905272,1.6905272 0 0 1 -1.6895,1.68945 1.6905272,1.6905272 0 0 1 -1.6914,-1.68945 1.6905272,1.6905272 0 0 1 1.6914,-1.69141 z"
       style="fill:#586e7f;fill-opacity:0.94117647" />
    <path
       inkscape:connector-curvature="0"
       id="path4597"
       d="m 1616.3566,-375.36716 0,131.94103"
       style="fill:none;fill-rule:evenodd;stroke:#586e7f;stroke-width:4;stroke-linecap:butt;stroke-linejoin:miter;stroke-miterlimit:4;stroke-dasharray:none;stroke-opacity:1" />
    <path
       style="fill:none;fill-rule:evenodd;stroke:#586e7f;stroke-width:4;stroke-linecap:butt;stroke-linejoin:miter;stroke-miterlimit:4;stroke-dasharray:none;stroke-opacity:1"
       d="m 1616.3566,-593.42613 0,183.13171"
       id="path4599"
       inkscape:connector-curvature="0" />
  </g>
</svg>
