<?xml version="1.0" encoding="UTF-8" standalone="no"?>
<!-- Created with Inkscape (http://www.inkscape.org/) -->

<svg
   xmlns:dc="http://purl.org/dc/elements/1.1/"
   xmlns:cc="http://creativecommons.org/ns#"
   xmlns:rdf="http://www.w3.org/1999/02/22-rdf-syntax-ns#"
   xmlns:svg="http://www.w3.org/2000/svg"
   xmlns="http://www.w3.org/2000/svg"
   xmlns:sodipodi="http://sodipodi.sourceforge.net/DTD/sodipodi-0.dtd"
   xmlns:inkscape="http://www.inkscape.org/namespaces/inkscape"
   width="625"
   height="350"
   viewBox="0 0 625 350"
   id="svg12163"
   version="1.1"
   inkscape:version="0.91 r13725"
   sodipodi:docname="switch.svg">
  <defs
     id="defs12165" />
  <sodipodi:namedview
     id="base"
     pagecolor="#ffffff"
     bordercolor="#666666"
     borderopacity="1.0"
     inkscape:pageopacity="0.0"
     inkscape:pageshadow="2"
     inkscape:zoom="2.3776"
     inkscape:cx="312.5"
     inkscape:cy="175"
     inkscape:document-units="px"
     inkscape:current-layer="layer1"
     showgrid="false"
     fit-margin-top="0"
     fit-margin-left="0"
     fit-margin-right="0"
     fit-margin-bottom="0"
     inkscape:window-width="1916"
     inkscape:window-height="1155"
     inkscape:window-x="4"
     inkscape:window-y="23"
     inkscape:window-maximized="1"
     units="px" />
  <metadata
     id="metadata12168">
    <rdf:RDF>
      <cc:Work
         rdf:about="">
        <dc:format>image/svg+xml</dc:format>
        <dc:type
           rdf:resource="http://purl.org/dc/dcmitype/StillImage" />
        <dc:title></dc:title>
      </cc:Work>
    </rdf:RDF>
  </metadata>
  <g
     inkscape:label="Layer 1"
     inkscape:groupmode="layer"
     id="layer1"
     transform="translate(-1174.3566,593.42613)">
    <g
       transform="translate(-106.75996,-387.85703)"
       id="text4619"
       style="font-style:normal;font-weight:normal;font-size:45px;line-height:125%;font-family:sans-serif;letter-spacing:0px;word-spacing:0px;fill:#586e7f;fill-opacity:1;stroke:none;stroke-width:1px;stroke-linecap:butt;stroke-linejoin:miter;stroke-opacity:1" />
    <path
       inkscape:connector-curvature="0"
       id="rect11665"
       d="m 1347.9662,-562.88873 c -1.6439,0 -2.9668,1.32287 -2.9668,2.96679 l 0,0.875 0,47.85352 0,0.875 c 0,1.64392 1.3229,2.9668 2.9668,2.9668 l 37.7949,0 c 1.6439,0 2.9668,-1.32288 2.9668,-2.9668 l 0,-0.875 0,-47.85352 0,-0.875 c 0,-1.64392 -1.3229,-2.96679 -2.9668,-2.96679 l -37.7949,0 z m 1.4453,4.87889 34.4883,0 0,43.77931 -34.4883,0 0,-43.77931 z m 17.4531,45.03322 a 2.0986359,2.0986359 0 0 1 2.0977,2.09961 2.0986359,2.0986359 0 0 1 -2.0977,2.09764 2.0986359,2.0986359 0 0 1 -2.0996,-2.09764 2.0986359,2.0986359 0 0 1 2.0996,-2.09961 z"
       style="font-style:normal;font-weight:normal;font-size:medium;line-height:125%;font-family:sans-serif;letter-spacing:0px;word-spacing:0px;fill:#586e7f;fill-opacity:0.94117647;stroke:none;stroke-width:1px;stroke-linecap:butt;stroke-linejoin:miter;stroke-opacity:1" />
    <path
       inkscape:connector-curvature="0"
       id="path11691"
       d="m 1295.4233,-553.24491 c -1.6915,0.009 -2.0259,2.42828 -2.0918,3.18358 l -0.027,0 0,0.32814 -0.1777,23.81836 0,0.23242 0,0.20703 0,0.23242 0.027,0 c 0.051,0.57583 0.3655,3.03726 2.1329,3.04688 l 13.6503,0 c 1.9895,-0.0108 1.9688,-3.33399 1.9688,-3.33399 l -0.014,0 0,-0.13671 c 0.01,-0.17292 0.014,-0.30274 0.014,-0.30274 l -0.014,0 0.055,-23.54297 c 0,0 3e-4,-0.0922 0,-0.10937 l 0,-0.0137 0,-0.31641 c 0,0 3e-4,-0.0922 0,-0.10938 -0.01,-0.31067 -0.1249,-3.17331 -2.0098,-3.18359 -1.9259,-0.0105 -4.525,-0.003 -6.9687,0 -2.3099,-0.003 -4.7361,-0.01 -6.5449,0 z m 4.7949,1.85155 3.8574,0 0.9356,1.76564 3.3086,0 0,22.72461 -12.295,0 0,-22.72461 3.2774,0 0.916,-1.76564 z m 1.8613,25.11914 a 1.6905272,1.6905272 0 0 1 1.6895,1.69142 1.6905272,1.6905272 0 0 1 -1.6895,1.68944 1.6905272,1.6905272 0 0 1 -1.6914,-1.68944 1.6905272,1.6905272 0 0 1 1.6914,-1.69142 z"
       style="font-style:normal;font-weight:normal;font-size:medium;line-height:125%;font-family:sans-serif;letter-spacing:0px;word-spacing:0px;fill:#586e7f;fill-opacity:0.94117647;stroke:none;stroke-width:1px;stroke-linecap:butt;stroke-linejoin:miter;stroke-opacity:1" />
    <g
       style="font-style:normal;font-weight:normal;font-size:medium;line-height:125%;font-family:sans-serif;letter-spacing:0px;word-spacing:0px;fill:#586e7f;fill-opacity:0.94117647;stroke:none;stroke-width:1px;stroke-linecap:butt;stroke-linejoin:miter;stroke-opacity:1"
       transform="matrix(0.32743772,0,0,0.32743772,1079.5497,-325.3296)"
       id="g4306">
      <path
         inkscape:connector-curvature="0"
         d="m 447.42999,3.3400416 0,0.0332 118.8476,0 -8.8496,39.5273504 c -2.95,13.569 -15.3411,22.41828 -28.9101,21.23828 l -0.5899,0 c -1.77,0 -3.5391,1.77106 -3.5391,3.53906 0,1.771 1.1814,2.95117 2.3594,2.95117 l 0.5899,0 50.1465,0 11.8007,0 17.6993,0 11.2089,0 50.7364,0 0.5898,0 c 1.181,-0.59 2.3594,-1.77217 2.3594,-2.95117 0,-1.77 -1.7701,-3.53906 -3.5391,-3.53906 l -0.5898,0 c -13.569,0.59 -25.9592,-8.25928 -28.9082,-21.23828 l -8.8516,-39.5273504 151.2598,0 0,-0.0332 -333.8203,0 z M 368.63698,-333.79441 c -7.079,0 -12.38867,5.30867 -12.38867,12.38867 l 0,307.9668 c 0,7.079 5.30967,12.38867 12.38867,12.38867 l 197.64061,0 -0.006,0.0293 63.7246,0 -0.006,-0.0293 197.6406,0 c 7.08,0 12.3907,-5.30967 12.3907,-12.38867 l 0,-307.9668 c 1.181,-7.08 -4.1271,-12.38867 -11.2071,-12.38867 l -460.17771,0 z m 8.25977,19.46875 444.83794,0 0,291.44531 -0.5899,0 -444.24804,0 0,-291.44531 z m 221.32034,294.55078 a 7.5245337,7.5245337 0 0 1 7.5254,7.52344 7.5245337,7.5245337 0 0 1 -7.5254,7.52539 7.5245337,7.5245337 0 0 1 -7.5235,-7.52539 7.5245337,7.5245337 0 0 1 7.5235,-7.52344 z"
         style="fill:#586e7f;fill-opacity:0.94117647"
         id="path12116" />
    </g>
    <path
       style="font-style:normal;font-weight:normal;font-size:medium;line-height:125%;font-family:sans-serif;letter-spacing:0px;word-spacing:0px;fill:#586e7f;fill-opacity:0.94117647;stroke:none;stroke-width:1px;stroke-linecap:butt;stroke-linejoin:miter;stroke-opacity:1"
       d="m 1268.8526,-553.24491 c -1.6915,0.009 -2.0259,2.42828 -2.0918,3.18358 l -0.027,0 0,0.32814 -0.1777,23.81836 0,0.23242 0,0.20703 0,0.23242 0.027,0 c 0.051,0.57583 0.3655,3.03726 2.1329,3.04688 l 13.6503,0 c 1.9895,-0.0108 1.9688,-3.33399 1.9688,-3.33399 l -0.014,0 0,-0.13671 c 0.01,-0.17292 0.014,-0.30274 0.014,-0.30274 l -0.014,0 0.055,-23.54297 c 0,0 3e-4,-0.0922 0,-0.10937 l 0,-0.0137 0,-0.31641 c 0,0 3e-4,-0.0922 0,-0.10938 -0.01,-0.31067 -0.1249,-3.17331 -2.0098,-3.18359 -1.9259,-0.0105 -4.525,-0.003 -6.9687,0 -2.3099,-0.003 -4.7361,-0.01 -6.5449,0 z m 4.7949,1.85155 3.8574,0 0.9356,1.76564 3.3086,0 0,22.72461 -12.295,0 0,-22.72461 3.2774,0 0.916,-1.76564 z m 1.8613,25.11914 a 1.6905272,1.6905272 0 0 1 1.6895,1.69142 1.6905272,1.6905272 0 0 1 -1.6895,1.68944 1.6905272,1.6905272 0 0 1 -1.6914,-1.68944 1.6905272,1.6905272 0 0 1 1.6914,-1.69142 z"
       id="path4489"
       inkscape:connector-curvature="0" />
    <g
       id="g4491"
       transform="matrix(0.2285315,0,0,0.2285315,1289.3976,-271.19465)"
       style="font-style:normal;font-weight:normal;font-size:medium;line-height:125%;font-family:sans-serif;letter-spacing:0px;word-spacing:0px;fill:#586e7f;fill-opacity:0.94117647;stroke:none;stroke-width:1px;stroke-linecap:butt;stroke-linejoin:miter;stroke-opacity:1">
      <path
         id="path4493"
         style="fill:#586e7f;fill-opacity:0.94117647"
         d="m 447.42999,3.3400416 0,0.0332 118.8476,0 -8.8496,39.5273504 c -2.95,13.569 -15.3411,22.41828 -28.9101,21.23828 l -0.5899,0 c -1.77,0 -3.5391,1.77106 -3.5391,3.53906 0,1.771 1.1814,2.95117 2.3594,2.95117 l 0.5899,0 50.1465,0 11.8007,0 17.6993,0 11.2089,0 50.7364,0 0.5898,0 c 1.181,-0.59 2.3594,-1.77217 2.3594,-2.95117 0,-1.77 -1.7701,-3.53906 -3.5391,-3.53906 l -0.5898,0 c -13.569,0.59 -25.9592,-8.25928 -28.9082,-21.23828 l -8.8516,-39.5273504 151.2598,0 0,-0.0332 -333.8203,0 z M 368.63698,-333.79441 c -7.079,0 -12.38867,5.30867 -12.38867,12.38867 l 0,307.9668 c 0,7.079 5.30967,12.38867 12.38867,12.38867 l 197.64061,0 -0.006,0.0293 63.7246,0 -0.006,-0.0293 197.6406,0 c 7.08,0 12.3907,-5.30967 12.3907,-12.38867 l 0,-307.9668 c 1.181,-7.08 -4.1271,-12.38867 -11.2071,-12.38867 l -460.17771,0 z m 8.25977,19.46875 444.83794,0 0,291.44531 -0.5899,0 -444.24804,0 0,-291.44531 z m 221.32034,294.55078 a 7.5245337,7.5245337 0 0 1 7.5254,7.52344 7.5245337,7.5245337 0 0 1 -7.5254,7.52539 7.5245337,7.5245337 0 0 1 -7.5235,-7.52539 7.5245337,7.5245337 0 0 1 7.5235,-7.52344 z"
         inkscape:connector-curvature="0" />
    </g>
    <path
       style="font-style:normal;font-weight:normal;font-size:medium;line-height:125%;font-family:sans-serif;letter-spacing:0px;word-spacing:0px;fill:#586e7f;fill-opacity:0.94117647;stroke:none;stroke-width:1px;stroke-linecap:butt;stroke-linejoin:miter;stroke-opacity:1"
       d="m 1321.9939,-553.24491 c -1.6915,0.009 -2.0259,2.42828 -2.0918,3.18358 l -0.027,0 0,0.32814 -0.1777,23.81836 0,0.23242 0,0.20703 0,0.23242 0.027,0 c 0.051,0.57583 0.3655,3.03726 2.1329,3.04688 l 13.6503,0 c 1.9895,-0.0108 1.9688,-3.33399 1.9688,-3.33399 l -0.014,0 0,-0.13671 c 0.01,-0.17292 0.014,-0.30274 0.014,-0.30274 l -0.014,0 0.055,-23.54297 c 0,0 3e-4,-0.0922 0,-0.10937 l 0,-0.0137 0,-0.31641 c 0,0 3e-4,-0.0922 0,-0.10938 -0.01,-0.31067 -0.1249,-3.17331 -2.0098,-3.18359 -1.9259,-0.0105 -4.525,-0.003 -6.9687,0 -2.3099,-0.003 -4.7361,-0.01 -6.5449,0 z m 4.7949,1.85155 3.8574,0 0.9356,1.76564 3.3086,0 0,22.72461 -12.295,0 0,-22.72461 3.2774,0 0.916,-1.76564 z m 1.8613,25.11914 a 1.6905272,1.6905272 0 0 1 1.6895,1.69142 1.6905272,1.6905272 0 0 1 -1.6895,1.68944 1.6905272,1.6905272 0 0 1 -1.6914,-1.68944 1.6905272,1.6905272 0 0 1 1.6914,-1.69142 z"
       id="path4495"
       inkscape:connector-curvature="0" />
    <g
       id="g6142"
       transform="matrix(0.68645944,0,0,0.67249122,528.54214,-121.63595)"
       style="fill:#ffffff;fill-opacity:1;stroke:#586eff;stroke-opacity:1">
      <path
         sodipodi:nodetypes="ccccc"
         id="path732-1"
         d="m 1463.5842,-445.60131 135.1386,0 0,53.00271 -135.1386,0 z"
         style="font-style:normal;font-weight:normal;font-size:medium;line-height:125%;font-family:sans-serif;letter-spacing:0px;word-spacing:0px;fill:#ffffff;fill-opacity:1;fill-rule:evenodd;stroke:#586eff;stroke-width:5.8872056;stroke-linecap:butt;stroke-linejoin:miter;stroke-miterlimit:10;stroke-dasharray:none;stroke-opacity:1"
         inkscape:connector-curvature="0" />
      <rect
         y="-432.12201"
         x="1477.7891"
         height="5.1144009"
         width="5.1144009"
         id="rect5840"
         style="fill:#ffffff;fill-opacity:1;stroke:#586eff;stroke-width:5.88720608;stroke-miterlimit:4;stroke-dasharray:none;stroke-opacity:1" />
      <rect
         style="fill:#ffffff;fill-opacity:1;stroke:#586eff;stroke-width:5.88720608;stroke-miterlimit:4;stroke-dasharray:none;stroke-opacity:1"
         id="rect5842"
         width="5.1144009"
         height="5.1144009"
         x="1497.7891"
         y="-432.12201" />
      <rect
         y="-432.12201"
         x="1517.7891"
         height="5.1144009"
         width="5.1144009"
         id="rect5844"
         style="fill:#ffffff;fill-opacity:1;stroke:#586eff;stroke-width:5.88720608;stroke-miterlimit:4;stroke-dasharray:none;stroke-opacity:1" />
      <rect
         style="fill:#ffffff;fill-opacity:1;stroke:#586eff;stroke-width:5.88720608;stroke-miterlimit:4;stroke-dasharray:none;stroke-opacity:1"
         id="rect5846"
         width="5.1144009"
         height="5.1144009"
         x="1537.7891"
         y="-432.12201" />
      <rect
         y="-432.12201"
         x="1557.7891"
         height="5.1144009"
         width="5.1144009"
         id="rect5848"
         style="fill:#ffffff;fill-opacity:1;stroke:#586eff;stroke-width:5.88720608;stroke-miterlimit:4;stroke-dasharray:none;stroke-opacity:1" />
      <rect
         style="fill:#ffffff;fill-opacity:1;stroke:#586eff;stroke-width:5.88720608;stroke-miterlimit:4;stroke-dasharray:none;stroke-opacity:1"
         id="rect5850"
         width="5.1144009"
         height="5.1144009"
         x="1577.7891"
         y="-432.12201" />
      <rect
         style="fill:#ffffff;fill-opacity:1;stroke:#586eff;stroke-width:5.88720608;stroke-miterlimit:4;stroke-dasharray:none;stroke-opacity:1"
         id="rect5852"
         width="5.1144009"
         height="5.1144009"
         x="1477.7891"
         y="-412.12201" />
      <rect
         y="-412.12201"
         x="1497.7891"
         height="5.1144009"
         width="5.1144009"
         id="rect5854"
         style="fill:#ffffff;fill-opacity:1;stroke:#586eff;stroke-width:5.88720608;stroke-miterlimit:4;stroke-dasharray:none;stroke-opacity:1" />
      <rect
         style="fill:#ffffff;fill-opacity:1;stroke:#586eff;stroke-width:5.88720608;stroke-miterlimit:4;stroke-dasharray:none;stroke-opacity:1"
         id="rect5856"
         width="5.1144009"
         height="5.1144009"
         x="1517.7891"
         y="-412.12201" />
      <rect
         y="-412.12201"
         x="1537.7891"
         height="5.1144009"
         width="5.1144009"
         id="rect5858"
         style="fill:#ffffff;fill-opacity:1;stroke:#586eff;stroke-width:5.88720608;stroke-miterlimit:4;stroke-dasharray:none;stroke-opacity:1" />
      <rect
         style="fill:#ffffff;fill-opacity:1;stroke:#586eff;stroke-width:5.88720608;stroke-miterlimit:4;stroke-dasharray:none;stroke-opacity:1"
         id="rect5860"
         width="5.1144009"
         height="5.1144009"
         x="1557.7891"
         y="-412.12201" />
      <rect
         y="-412.12201"
         x="1577.7891"
         height="5.1144009"
         width="5.1144009"
         id="rect5862"
         style="fill:#ffffff;fill-opacity:1;stroke:#586eff;stroke-width:5.88720608;stroke-miterlimit:4;stroke-dasharray:none;stroke-opacity:1" />
    </g>
    <g
       id="g6130"
       transform="matrix(0.76815874,0,0,0.76559835,483.49572,465.38639)">
      <path
         inkscape:connector-curvature="0"
         style="fill:#586e7f;fill-opacity:1;fill-rule:evenodd;stroke:none;stroke-width:1.25;stroke-linejoin:round;stroke-miterlimit:10;stroke-opacity:0.94117647"
         d="m 1325.9561,-1319.6169 c 1.6797,0 3.0382,1.3586 3.0382,3.0383 l 0,43.2075 c 0,1.6797 -1.3584,3.0382 -3.0382,3.0382 -1.6758,0 -3.0383,-1.3584 -3.0383,-3.0382 l 0,-43.2075 c 0,-1.6797 1.3626,-3.0383 3.0383,-3.0383"
         id="path730" />
      <path
         inkscape:connector-curvature="0"
         style="fill:none;fill-opacity:1;fill-rule:evenodd;stroke:#586e7f;stroke-width:5.21595716;stroke-miterlimit:10;stroke-dasharray:none;stroke-opacity:1"
         d="m 1294.7575,-1270.3143 120,0 0,35 -120,0 z"
         id="path732"
         sodipodi:nodetypes="ccccc" />
      <path
         inkscape:connector-curvature="0"
         style="fill:none;fill-rule:evenodd;stroke:#586e7f;stroke-width:5.21595716;stroke-miterlimit:10;stroke-dasharray:none;stroke-opacity:0.94117647"
         d="m 1390.2172,-1246.8143 c 0,5.8008 -8.7078,5.8008 -8.7078,0 0,-5.8008 8.7078,-5.8008 8.7078,0"
         id="path742" />
      <path
         id="path4471"
         d="m 1407.6276,-1246.8143 c 0,5.8008 -8.7078,5.8008 -8.7078,0 0,-5.8008 8.7078,-5.8008 8.7078,0"
         style="fill:none;fill-rule:evenodd;stroke:#586e7f;stroke-width:5.21595716;stroke-miterlimit:10;stroke-dasharray:none;stroke-opacity:0.94117647"
         inkscape:connector-curvature="0" />
      <path
         id="path4473"
         d="m 1305.84,-1261.5126 52.222,0"
         style="fill:#586e75;fill-opacity:1;fill-rule:evenodd;stroke:#586e7f;stroke-width:5.21595716;stroke-miterlimit:10;stroke-dasharray:none;stroke-opacity:1"
         inkscape:connector-curvature="0"
         sodipodi:nodetypes="cc" />
      <path
         sodipodi:nodetypes="cc"
         inkscape:connector-curvature="0"
         style="fill:#586e75;fill-opacity:1;fill-rule:evenodd;stroke:#586e7f;stroke-width:5.21595716;stroke-miterlimit:10;stroke-dasharray:none;stroke-opacity:1"
         d="m 1305.84,-1243.5126 52.222,0"
         id="path4475" />
      <path
         id="path4477"
         d="m 1305.84,-1252.5126 52.222,0"
         style="fill:#586e75;fill-opacity:1;fill-rule:evenodd;stroke:#586e7f;stroke-width:5.21595716;stroke-miterlimit:10;stroke-dasharray:none;stroke-opacity:1"
         inkscape:connector-curvature="0"
         sodipodi:nodetypes="cc" />
      <path
         style="fill:none;fill-opacity:1;stroke:#586e7f;stroke-width:7.82393646;stroke-miterlimit:10;stroke-dasharray:none;stroke-opacity:1"
         d="m 1308.1534,-1332.6737 c -2.3188,4.2338 -3.5165,8.6972 -3.541,13.1965 0.023,5.3199 1.6859,10.5817 4.8887,15.4682"
         id="path4536"
         inkscape:connector-curvature="0"
         sodipodi:nodetypes="ccc" />
      <path
         style="fill:none;fill-opacity:1;stroke:#586e7f;stroke-width:7.82393646;stroke-miterlimit:10;stroke-dasharray:none;stroke-opacity:1"
         d="m 1289.3616,-1339.009 c -3.5485,6.2494 -5.3834,12.8621 -5.4199,19.5318 0.028,7.4911 2.3256,14.9036 6.7578,21.806"
         id="path4534"
         inkscape:connector-curvature="0"
         sodipodi:nodetypes="ccc" />
      <path
         style="fill:none;fill-opacity:1;stroke:#586e7f;stroke-width:7.82393646;stroke-miterlimit:10;stroke-dasharray:none;stroke-opacity:1"
         d="m 1268.6925,-1344.6131 c -4.6372,8.0318 -7.0355,16.5461 -7.0801,25.1359 0.033,9.4119 2.8914,18.7272 8.4121,27.4127"
         id="circle4520"
         inkscape:connector-curvature="0"
         sodipodi:nodetypes="ccc" />
    </g>
    <path
       style="fill:none;fill-rule:evenodd;stroke:#586d7e;stroke-width:2;stroke-linecap:butt;stroke-linejoin:miter;stroke-miterlimit:4;stroke-dasharray:none;stroke-opacity:0.94117647"
       d="m 1544.5109,-397.374 0,116.21087 -65.4169,0"
       id="path6159"
       inkscape:connector-curvature="0"
       sodipodi:nodetypes="ccc" />
    <path
       sodipodi:nodetypes="cc"
       inkscape:connector-curvature="0"
       id="path6161"
       d="m 1543.2025,-410.45739 -190.5813,0"
       style="fill:none;fill-rule:evenodd;stroke:#586d7e;stroke-width:2;stroke-linecap:butt;stroke-linejoin:miter;stroke-miterlimit:4;stroke-dasharray:none;stroke-opacity:0.94117647" />
    <path
       style="fill:none;fill-rule:evenodd;stroke:#586d7e;stroke-width:2;stroke-linecap:butt;stroke-linejoin:miter;stroke-miterlimit:4;stroke-dasharray:none;stroke-opacity:0.94117647"
       d="m 1558.6846,-481.32571 0,69.3419"
       id="path6163"
       inkscape:connector-curvature="0"
       sodipodi:nodetypes="cc" />
    <path
       style="fill:none;fill-rule:evenodd;stroke:#586d7e;stroke-width:1.99999988;stroke-linecap:butt;stroke-linejoin:miter;stroke-miterlimit:4;stroke-dasharray:none;stroke-opacity:0.94117647"
       d="m 1799.5336,-410.45737 -183.7953,0"
       id="path6165"
       inkscape:connector-curvature="0"
       sodipodi:nodetypes="cc" />
    <text
       xml:space="preserve"
       style="font-style:normal;font-weight:normal;font-size:25px;line-height:125%;font-family:sans-serif;letter-spacing:0px;word-spacing:0px;fill:#586d7e;fill-opacity:0.94117647;stroke:none;stroke-width:1px;stroke-linecap:butt;stroke-linejoin:miter;stroke-opacity:1"
       x="1363.8795"
       y="-387.86893"
       id="text6167"
       sodipodi:linespacing="125%"><tspan
         sodipodi:role="line"
         id="tspan6169"
         x="1363.8795"
         y="-387.86893"
         style="font-style:normal;font-variant:normal;font-weight:normal;font-stretch:condensed;font-size:20px;font-family:'Arial Narrow';-inkscape-font-specification:'Arial Narrow Condensed'">AD:3E:FF:10:43:19</tspan></text>
    <text
       sodipodi:linespacing="125%"
       id="text6171"
       y="-258.75586"
       x="1490.8983"
       style="font-style:normal;font-weight:normal;font-size:25px;line-height:125%;font-family:sans-serif;letter-spacing:0px;word-spacing:0px;fill:#586d7e;fill-opacity:0.94117647;stroke:none;stroke-width:1px;stroke-linecap:butt;stroke-linejoin:miter;stroke-opacity:1"
       xml:space="preserve"><tspan
         style="font-style:normal;font-variant:normal;font-weight:normal;font-stretch:condensed;font-size:20px;font-family:'Arial Narrow';-inkscape-font-specification:'Arial Narrow Condensed'"
         y="-258.75586"
         x="1490.8983"
         id="tspan6173"
         sodipodi:role="line">48:A3:09:11:72:BE</tspan></text>
    <text
       xml:space="preserve"
       style="font-style:normal;font-weight:normal;font-size:25px;line-height:125%;font-family:sans-serif;letter-spacing:0px;word-spacing:0px;fill:#586d7e;fill-opacity:0.94117647;stroke:none;stroke-width:1px;stroke-linecap:butt;stroke-linejoin:miter;stroke-opacity:1"
       x="1513.5928"
       y="-519.33459"
       id="text6175"
       sodipodi:linespacing="125%"><tspan
         sodipodi:role="line"
         id="tspan6177"
         x="1513.5928"
         y="-519.33459"
         style="font-style:normal;font-variant:normal;font-weight:normal;font-stretch:condensed;font-size:20px;font-family:'Arial Narrow';-inkscape-font-specification:'Arial Narrow Condensed'">77:13:99:42:14:EE</tspan></text>
    <text
       sodipodi:linespacing="125%"
       id="text6179"
       y="-388.95102"
       x="1654.673"
       style="font-style:normal;font-weight:normal;font-size:25px;line-height:125%;font-family:sans-serif;letter-spacing:0px;word-spacing:0px;fill:#586d7e;fill-opacity:0.94117647;stroke:none;stroke-width:1px;stroke-linecap:butt;stroke-linejoin:miter;stroke-opacity:1"
       xml:space="preserve"><tspan
         style="font-style:normal;font-variant:normal;font-weight:normal;font-stretch:condensed;font-size:20px;font-family:'Arial Narrow';-inkscape-font-specification:'Arial Narrow Condensed'"
         y="-388.95102"
         x="1654.673"
         id="tspan6181"
         sodipodi:role="line">FA:12:44:F7:BA:09</tspan></text>
  </g>
</svg>
