<?xml version="1.0" encoding="UTF-8" standalone="no"?>
<!-- Created with Inkscape (http://www.inkscape.org/) -->

<svg
   xmlns:dc="http://purl.org/dc/elements/1.1/"
   xmlns:cc="http://creativecommons.org/ns#"
   xmlns:rdf="http://www.w3.org/1999/02/22-rdf-syntax-ns#"
   xmlns:svg="http://www.w3.org/2000/svg"
   xmlns="http://www.w3.org/2000/svg"
   xmlns:sodipodi="http://sodipodi.sourceforge.net/DTD/sodipodi-0.dtd"
   xmlns:inkscape="http://www.inkscape.org/namespaces/inkscape"
   width="625"
   height="350"
   viewBox="0 0 625 350"
   id="svg12163"
   version="1.1"
   inkscape:version="0.91 r13725"
   sodipodi:docname="wan.svg">
  <defs
     id="defs12165" />
  <sodipodi:namedview
     id="base"
     pagecolor="#ffffff"
     bordercolor="#666666"
     borderopacity="1.0"
     inkscape:pageopacity="0.0"
     inkscape:pageshadow="2"
     inkscape:zoom="2.3776"
     inkscape:cx="312.5"
     inkscape:cy="175"
     inkscape:document-units="px"
     inkscape:current-layer="layer1"
     showgrid="false"
     fit-margin-top="0"
     fit-margin-left="0"
     fit-margin-right="0"
     fit-margin-bottom="0"
     inkscape:window-width="1916"
     inkscape:window-height="1155"
     inkscape:window-x="4"
     inkscape:window-y="23"
     inkscape:window-maximized="1"
     units="px" />
  <metadata
     id="metadata12168">
    <rdf:RDF>
      <cc:Work
         rdf:about="">
        <dc:format>image/svg+xml</dc:format>
        <dc:type
           rdf:resource="http://purl.org/dc/dcmitype/StillImage" />
        <dc:title></dc:title>
      </cc:Work>
    </rdf:RDF>
  </metadata>
  <g
     inkscape:label="Layer 1"
     inkscape:groupmode="layer"
     id="layer1"
     transform="translate(-1174.3566,593.42613)">
    <text
       sodipodi:linespacing="125%"
       id="text4895"
       y="-268.17484"
       x="1181.9128"
       style="font-style:normal;font-weight:normal;font-size:40px;line-height:125%;font-family:sans-serif;letter-spacing:0px;word-spacing:0px;fill:#586e7f;fill-opacity:1;stroke:none;stroke-width:1px;stroke-linecap:butt;stroke-linejoin:miter;stroke-opacity:1"
       xml:space="preserve"><tspan
         style="font-size:25px;fill:#586e7f;fill-opacity:1"
         y="-268.17484"
         x="1181.9128"
         id="tspan4897"
         sodipodi:role="line">143.1.34.*</tspan></text>
    <g
       style="font-style:normal;font-weight:normal;font-size:medium;line-height:125%;font-family:sans-serif;letter-spacing:0px;word-spacing:0px;fill:#586e7f;fill-opacity:1;stroke:none;stroke-width:1px;stroke-linecap:butt;stroke-linejoin:miter;stroke-opacity:1"
       transform="translate(-621.3271,61.341931)"
       id="g5351">
      <path
         sodipodi:nodetypes="ccccc"
         id="path732-1"
         d="m 1935.3658,-631.54815 55.8111,0 0,14.81157 -55.8111,0 z"
         style="fill:none;fill-opacity:1;fill-rule:evenodd;stroke:#586e7f;stroke-width:4;stroke-miterlimit:10;stroke-dasharray:none;stroke-opacity:1"
         inkscape:connector-curvature="0" />
      <path
         sodipodi:nodetypes="cc"
         inkscape:connector-curvature="0"
         style="fill:#586e75;fill-opacity:1;fill-rule:evenodd;stroke:#586e7f;stroke-width:4;stroke-miterlimit:10;stroke-dasharray:none;stroke-opacity:1"
         d="m 1940.5202,-624.14236 24.2881,0"
         id="path4473" />
    </g>
    <g
       style="font-style:normal;font-weight:normal;font-size:medium;line-height:125%;font-family:sans-serif;letter-spacing:0px;word-spacing:0px;fill:#586e7f;fill-opacity:1;stroke:none;stroke-width:1px;stroke-linecap:butt;stroke-linejoin:miter;stroke-opacity:1"
       transform="matrix(0.15432398,0,0,0.15432398,1608.4128,-499.88738)"
       id="g5530">
      <g
         style="clip-rule:evenodd;fill-rule:evenodd"
         id="g5532">
        <path
           inkscape:connector-curvature="0"
           d="m 495.98,288.96 c -2.482,11.849 -6.476,22.188 -12.999,29.996 -4.861,-2.804 -9.311,-6.021 -7.999,-14.998 8.66,-3.34 6.17,-17.83 21,-15 z"
           id="path5536" />
        <path
           inkscape:connector-curvature="0"
           d="m 509.98,408.95 c -4.83,2.011 3.641,3.085 1,8.998 -4.842,0.844 -3.172,-4.826 -8.999,-2.999 1.028,-6.991 2.133,-7.494 0,-13.998 -3.805,1.195 -10.533,3.67 -14.999,1 -1.235,-3.235 3.235,-0.765 2,-4 -2.315,1.019 -4.655,2.012 -5,4.999 -0.876,3.21 2.593,2.073 3,4 0.364,4.362 -1.816,6.183 -4,7.999 -5.114,-2.218 -6.676,-7.988 -7.999,-13.998 0.607,-1.727 4.743,0.076 5,-2 1.027,-3.359 -3.11,-1.557 -5,-2 -0.745,-3.077 2.745,-1.921 2,-4.999 0.168,-2.168 -3.546,-0.453 -5,-1 -0.442,-6.557 -4.824,-9.174 -3,-17.998 2.465,0.132 4.817,0.151 5.999,-1 l 0,-16.997 c 3.651,-0.682 4.513,-4.153 7,-6 6.282,-0.616 6.291,5.041 13.998,3 l 0,20.997 c -2.962,1.371 -5.108,3.558 -8.999,4 l 0,5.999 c 0.356,2.644 5.095,0.904 6,3 0.542,3.874 -5.801,0.864 -6,3.999 -0.674,6.298 9.086,4.268 9.999,1 2.666,2.333 6.886,3.112 10.999,3.999 -1.319,7.319 3.313,8.687 4,13.999 l 10.999,0 c -0.181,2.181 0.818,3.181 3,2.999 l 0,11.999 -4.999,0 c -0.743,4.076 3.223,3.442 2,7.999 -1.182,1.151 -3.534,1.132 -5.999,1 0.446,-6.135 -6.521,-10.87 -1,-15.998 -0.4,-4.27 -5.33,-4 -6,-8 z"
           id="path5538" />
        <path
           inkscape:connector-curvature="0"
           d="m 507.98,434.94 c 3.149,0.483 2.264,-3.068 5.999,-1.999 0.558,2.441 3.869,2.13 3,5.999 -10.861,-2.528 -12.225,4.439 -18.998,5.999 -2.506,-1.493 -5.467,-2.531 -4.999,-6.999 0.288,-3.712 5.29,-2.709 4.999,-6.999 -1.711,-2.288 -7.632,-0.367 -10.999,-1 0.466,-4.534 4.727,-5.272 3,-11.999 12.14,-3.141 10.423,7.575 15.998,10.999 3.149,0.483 0.749,-4.584 3,-4.999 5,1.41 1.87,9.09 -1,11 z"
           id="path5540" />
        <path
           inkscape:connector-curvature="0"
           d="m 522.98,435.94 c 3.103,-0.104 2.854,3.146 6.999,2 -0.943,5.276 3.049,5.617 5,7.999 0.166,5.833 -1.256,13.254 2.999,14.998 -3.341,3.324 -2.444,10.887 -8.999,10.999 -0.547,-1.453 1.168,-5.168 -1,-5 -4.354,0.979 -0.893,9.773 -2,13.998 -8.988,-0.344 -13.161,-5.503 -17.998,-9.998 -0.792,-3.458 1.111,-4.222 2,-6 -0.441,-2.891 -2.108,-4.558 -4.999,-4.999 -2.892,1.689 -6.87,5.118 -9.999,1 -3.149,-0.483 -0.749,4.584 -3,4.999 -8.091,-8.347 7.885,-16.117 15.998,-17.997 l 0,4.999 c 3.745,-0.254 5.589,-2.41 8.999,-3 l 0,-4.999 c 2.465,0.132 4.817,0.151 5.999,-1 l 0,-8 z"
           id="path5542" />
        <path
           inkscape:connector-curvature="0"
           d="m 140.03,447.94 c 7.675,3.842 16.73,39.515 -4,35.995 -1.66,-14.98 2.95,-23.72 4,-36 z"
           id="path5544" />
        <path
           inkscape:connector-curvature="0"
           d="m 441.99,462.94 c -1.533,7.865 3.404,9.261 4,14.998 8.51,-1.512 10.226,3.772 13.998,6.999 -0.575,5.091 -7.695,3.637 -5.999,10.999 l -7.999,0 c -1.89,2.442 -0.036,8.63 -3,9.998 2.108,4.558 6.99,6.342 4.999,14.998 3.333,3.334 10.841,2.491 8.999,10.999 -4.145,0.854 -12.297,-2.299 -11.999,3 2.199,4.8 11.093,2.905 8.999,11.998 -5.71,0.377 -4.479,-6.187 -9.999,-5.999 -3.315,0.351 -1.569,5.763 -2,8.999 -5.824,-1.491 -5.469,3.196 -8.999,3.999 1.947,12.612 -5.024,16.307 -3,28.996 -6.341,-5.105 -10.366,-1.132 -17.998,0 -1.019,-14.077 -18.929,-10.849 -26.997,-5.999 0.132,-2.465 0.152,-4.817 -1,-5.999 l -13.999,0 c 0.241,-6.573 -5.013,-7.652 -3,-15.998 -0.112,-2.555 -3.348,-1.984 -5.999,-2 -1.093,-9.906 -7.478,-14.52 -6,-26.996 3.651,-0.682 4.513,-4.153 6.999,-6 6.3,-1.3 5.047,4.952 11.999,3 3.994,-6.671 13.278,-8.053 16.998,-14.998 13.382,-3.181 12.421,-20.526 28.996,-20.997 1.151,-1.182 1.132,-3.535 1,-6 l 5,0 c -0.233,-7.565 7.823,-6.842 6.999,-14.998 5.83,1.83 4.16,-3.84 9,-3 z"
           id="path5546" />
        <path
           inkscape:connector-curvature="0"
           d="m 238.01,483.94 4,0 c 2.518,3.148 7.858,3.475 13.998,3 6.308,5.691 6.618,17.379 17.998,17.997 1.654,12.011 13.406,13.924 22.997,17.998 2.171,7.495 10.823,8.509 12.999,15.998 1.388,5.387 -3.809,4.19 -3,8.999 10.157,1.176 7.705,14.959 16.998,16.998 1.069,-3.735 -2.483,-2.851 -2,-6 2.835,-1.164 3.814,-4.185 8.999,-2.999 -3.223,10.994 9.338,10.049 6,17.998 -3.078,0.744 -1.922,-2.745 -5,-2 -8.446,9.109 1.924,19.395 -4,28.996 -4.332,-1.667 -7.726,-4.272 -14.998,-3 -2.823,-9.842 -17.479,-7.851 -17.998,-19.997 -1.182,-1.151 -3.534,-1.132 -5.999,-1 -0.322,-6.01 -3.134,-9.53 -5.999,-12.998 0.463,-7.463 -2.965,-11.034 -6,-14.998 -0.504,-21.493 -20.067,-23.928 -23.997,-41.995 -7.7,-4.97 -14.57,-10.77 -15,-23 z"
           id="path5548" />
        <path
           style="fill:#ffffff"
           inkscape:connector-curvature="0"
           d="m 478.98,534.93 21.998,0 c -1.401,5.264 -3.043,10.288 -7.999,11.998 -2.58,-6.08 -9.16,-8.16 -14,-12 z"
           id="path5550" />
        <path
           style="fill:#ffffff"
           inkscape:connector-curvature="0"
           d="m 486.98,544.93 c -2.413,3.506 -14.047,2.271 -17.998,1 l 0,-3.999 c 4.33,-1.03 17.99,-3.53 18,3 z"
           id="path5552" />
        <path
           inkscape:connector-curvature="0"
           d="m 570.97,546.93 2.999,0 c -2.258,9.258 5.055,8.944 6,14.998 l -8.999,0 c 0.91,-6.14 -2.38,-10.33 0,-15 z"
           id="path5554" />
        <path
           inkscape:connector-curvature="0"
           d="m 603.97,562.93 c -2.193,-0.109 -8.068,3.625 -14.998,2 -1.426,-4.426 3.384,-2.616 3,-6 -2.46,-6.205 -17.341,0.01 -14.998,-10.998 8.162,0.1 21.805,-1.652 35.996,-1 3.853,2.146 1.217,10.781 5.999,11.998 0.745,3.078 -2.745,1.922 -2,5 -0.169,2.168 3.546,0.453 4.999,1 l 0,6.999 c 0.141,2.859 4.171,1.828 7,2 6.537,-8.461 17.187,-12.81 23.996,-20.998 8.484,5.515 14.788,13.209 29.996,11.999 8.233,4.432 15.955,9.375 28.997,8.999 4.774,7.224 13.637,10.359 20.997,14.998 l 0,7.999 c 7.812,2.521 18.209,2.455 17.998,12.998 -2.651,0.015 -5.888,-0.555 -5.999,2 -0.844,4.842 4.826,3.173 2.999,8.999 1.182,1.15 3.534,1.131 6,0.999 -1.759,6.425 4.579,4.753 2.999,10.999 8.761,3.571 16.055,8.608 17.998,18.998 -6.35,1.017 -7.862,-2.804 -9.999,-6 l -16.998,0 c -3.682,-6.983 -10.157,-11.173 -11.998,-19.997 -7.919,-2.614 -16.207,-8.446 -23.997,-3 1.579,6.246 -4.758,4.574 -3,10.999 -6.843,2.155 -13.923,4.075 -23.997,2.999 -6.176,-12.605 -17.242,-11.927 -32.996,-8.998 -1.545,-8.879 2.588,-12.078 9,-12.999 -2.315,-19.682 -17.131,-26.863 -36.996,-28.996 -6.669,-5.609 -13.773,-6.892 -22.997,-3 1.014,-8.013 -1.997,-12.001 -8.999,-11.998 1.56,-5.1 11.21,-2.12 12,-8 z"
           id="path5556" />
        <path
           inkscape:connector-curvature="0"
           d="m 561.97,558.93 c 0.01,4.048 -5.521,7.759 -8.999,5 2.05,-2.62 5.23,-4.11 9,-5 z"
           id="path5558" />
        <path
           inkscape:connector-curvature="0"
           d="m 579.97,579.93 c -6.52,-5.337 -12.588,-2.642 -18.998,-5 -4.971,0.361 -3.708,6.957 -10.998,5 -0.126,-3.643 4.182,-4.77 0,-6.999 5.48,-10.45 33.91,-4.35 30,7 z"
           id="path5560" />
        <path
           inkscape:connector-curvature="0"
           d="m 543.98,574.93 c -0.716,4.95 -5.852,5.479 -11.998,5 -2.23,-9.4 9.46,-11.57 12,-5 z"
           id="path5562" />
        <path
           inkscape:connector-curvature="0"
           d="m 372,611.92 c 2.168,0.168 0.453,-3.547 1,-5 9.237,-0.238 14.625,3.373 20.997,6 3.025,-2.975 8.409,-3.59 14.998,-3 0.544,6.544 -7.025,4.973 -10.999,6.999 0.979,4.354 9.773,0.893 13.999,2 1.444,4.555 5.273,6.725 11.998,5.999 0.132,2.465 0.152,4.817 -1,5.999 -6.225,0.559 -8.4,-6.109 -11.999,0 -4.835,-5.164 -17.724,-2.273 -26.997,-2.999 -6.122,-2.877 -11.738,-6.261 -20.998,-6 -3.212,0.88 -1.37,-3.296 -4,-2.999 -10.992,6.153 -25.404,-4.379 -33.996,-9.999 4.605,-10.904 9.212,-4.665 21.997,-4.999 5.12,5.88 16.76,5.24 25,8 z"
           id="path5564" />
        <path
           inkscape:connector-curvature="0"
           d="m 537.98,619.92 c 0.774,3.508 -8.246,2.329 -8.999,1 -0.78,-3.5 8.24,-2.33 9,-1 z"
           id="path5566" />
        <path
           inkscape:connector-curvature="0"
           d="m 459.99,630.92 c -11.747,3.807 -22.51,1.498 -32.996,3 -0.155,-5.487 1.646,-9.019 6.999,-8.999 5.5,8.66 23.37,-8.5 26,6 z"
           id="path5568" />
        <path
           inkscape:connector-curvature="0"
           d="m 486.98,627.92 0,5.999 c -10.198,2.199 -11.923,-4.075 -20.997,-3 2.14,-11.61 12.65,-2.24 21,-3 z"
           id="path5570" />
        <path
           inkscape:connector-curvature="0"
           d="m 519.98,625.92 c 0.774,3.508 -8.246,2.329 -8.999,1 -0.77,-3.51 8.25,-2.33 9,-1 z"
           id="path5572" />
        <path
           inkscape:connector-curvature="0"
           d="m 541.98,628.92 c -8.159,5.839 -20.756,7.241 -24.996,16.998 -6.726,-1.727 -7.465,2.534 -11.999,3 -2.926,-16.258 15.261,-11.402 18.998,-20.997 8.92,3.65 16.42,-7.64 18,1 z"
           id="path5574" />
        <path
           inkscape:connector-curvature="0"
           d="m 771.95,633.92 c 5.703,0.963 7.761,5.571 9.999,9.999 -1.086,0.247 -0.678,1.988 -2,1.999 -3.556,-2.11 -4.141,-7.19 -8.999,-7.999 -0.13,-1.79 1.22,-2.11 1,-4 z"
           id="path5576" />
        <path
           inkscape:connector-curvature="0"
           d="m 459.99,636.92 11.999,0 c 0.172,4.828 6.657,3.342 6,8.999 -8.993,1.993 -9.239,-4.76 -17.998,-2.999 l 0,-6 z"
           id="path5578" />
        <path
           inkscape:connector-curvature="0"
           d="m 630.96,864.89 c 3.314,-0.352 4.338,-2.994 5.999,-4.999 -8.14,0.627 -12.945,12.976 -23.996,13.998 2.157,-12.489 -9.646,-11.018 -9.999,-20.997 -9.839,0.507 -16.14,-2.525 -21.997,-5.999 -4.869,-1.203 -2.71,4.622 -8,2.999 -5.317,-6.119 -15.956,-0.188 -20.996,3 -19.305,-1.64 -30.887,4.442 -37.996,14.998 l -12.998,0 c -8.715,-7.681 -20.676,1.875 -26.997,5.999 -12.877,0.879 -23.766,-0.231 -28.997,-6.999 5.037,-9.165 2.726,-22.34 -5.999,-25.997 -1.025,-17.972 -13.874,-24.121 -17.998,-38.995 l 5,0 c -1.317,-8.681 -7.62,-12.378 -10.999,-18.997 6.403,-3.951 -0.086,-18.957 4,-22.997 4.208,-1.542 0.159,5.174 3,4.999 6.121,-6.544 13.417,-11.912 20.998,-16.998 3.458,-0.791 4.221,1.111 5.999,2 4.96,-3.372 13.02,-3.645 16.998,-7.999 13.37,6.226 19.92,-9.489 26.997,-15.998 l 0,-10.999 c 4.828,-0.171 3.341,-6.656 8.999,-5.999 -0.576,4.909 1.296,7.369 4.999,7.999 2.288,-1.711 0.367,-7.632 1,-10.998 l 7.999,0 c 1.069,-3.735 -2.483,-2.851 -2,-6 8.45,-6.882 15.699,-14.964 27.996,-17.997 5.083,2.583 7.39,7.942 11.999,10.998 5.301,-4.481 5.196,2.703 12.999,1 -4.032,-6.492 0.549,-8.093 1,-14.998 2.465,0.132 4.816,0.151 5.998,-1 l 0,-7.999 c 6.241,-3.758 19.359,-0.639 22.998,-6.999 0.472,-4.805 -6.109,-2.557 -5,-7.999 15.54,4.313 30.873,14.135 44.994,8.999 0.355,2.979 4.115,2.551 3,6.999 -6.828,4.837 -8.462,14.869 -13.998,20.997 5.993,9.672 20.68,10.649 26.996,19.998 l 8,0 c -1.7,7.698 6.342,5.656 8.998,8.999 3.664,-0.003 2.653,-4.68 7.999,-3 4.368,-9.297 9.044,-18.286 6.999,-33.996 2.877,-6.122 6.26,-11.737 6,-20.997 2.051,-2.615 4.013,-5.318 2.999,-10.998 l 5.999,0 c 1.692,10.64 6.846,17.817 6,30.996 1.863,5.802 11.148,4.182 14.998,7.999 -3.264,18.595 8.846,21.816 5.999,39.994 5.946,5.719 13.465,9.866 20.997,13.999 -2.047,8.38 4.528,8.137 3,15.998 2.229,2.438 6.497,2.835 8.999,4.999 0.566,12.432 9.138,16.859 14.998,23.997 -1.293,10.705 -4.521,19.476 -3,32.996 -6.926,4.072 -9.587,12.41 -11.998,20.997 -3.435,1.565 -6.689,3.31 -5.999,8.999 -7.328,0.671 -11.328,4.67 -11.999,11.998 -4.813,4.186 -11.525,6.473 -11.998,14.998 -3.607,-0.274 -2.712,3.954 -6,4 l 0,7.999 c -6.675,4.323 -21.985,0.012 -23.997,8.999 l -14.998,0 0,-5 c -4.582,-0.583 -4.661,3.338 -6.999,5 -12.908,2.242 -17.394,-3.937 -28.996,-3 0.181,-2.181 -0.818,-3.181 -2.999,-3 -0.001,-3.333 0,-6.665 0,-9.998 -2.504,-2.163 -3.271,-6.062 -9,-5 -1.291,-4.957 2.42,-4.912 2,-8.998 -6.395,-0.729 -5.344,5.987 -10.998,5.999 0.24,-4.78 4.65,-5.36 3.01,-12 z"
           id="path5580" />
        <path
           inkscape:connector-curvature="0"
           d="m 876.94,861.89 2.999,0 c 0.677,4.79 2.182,10.045 -1.999,12.998 0.975,2.691 2.204,5.128 2.999,7.999 4.677,1.011 3.322,-4.011 7.999,-3 -3.019,5.647 -6.159,11.173 -13.998,11.999 -2.036,10.296 -11.636,13.028 -18.998,17.998 -0.653,-5.32 4.584,-4.749 6,-7.999 1.28,-3.948 -2.914,-2.42 -3,-5 8.55,-9.08 19.52,-18.92 18,-35 z"
           id="path5582" />
        <path
           inkscape:connector-curvature="0"
           d="m 630.96,880.89 c 0.774,3.508 -8.245,2.33 -8.999,1 -0.77,-3.51 8.25,-2.33 9,-1 z"
           id="path5584" />
        <path
           inkscape:connector-curvature="0"
           d="m 852.94,906.89 c -3.121,10.877 -16.8,11.197 -20.997,20.997 -7.483,-0.483 -12.479,1.52 -11.999,8.999 -10.117,2.094 -16.731,14.317 -26.997,4.999 6.541,-4.457 12.159,-9.838 18.998,-13.998 19.86,-0.81 20.53,-20.8 41,-21 z"
           id="path5586" />
        <path
           inkscape:connector-curvature="0"
           d="m 675.96,915.89 c 6.123,-1.124 8.896,1.101 11.998,2.999 3.101,-1.898 5.876,-4.123 11.998,-2.999 2.442,14.093 -16.211,22.783 -23.996,13.998 4.17,-4.06 -1.62,-6.85 0,-14 z"
           id="path5588" />
        <path
           inkscape:connector-curvature="0"
           d="m 530.98,38.995003 c 164.85,-7.85 289.96,58.213 373.95,136.979997 84.418,79.168 154.61,194.16 161.98,348.96 4.055,85.128 -12.819,156.96 -37.995,217.97 -25.082,60.783 -58.126,112.76 -98.987,155.98001 -82.319,87.075 -192.46,153.47999 -349.96,160.97999 -164.12,7.815 -288.86,-57.858 -372.95,-135.97999 C 118.518,841.605 53.378,731.555 45.058,574.895 c -8.873,-166.94 57.312,-288.66 134.98,-373.95 58.507,-64.251 139.86,-117.259997 238.97,-144.979997 33.88,-9.484 75.27,-15.256 111.99,-17.005 z m 146.98,42.995 c -15.027,-0.304 -25.712,-4.951 -42.995,-3 -8.061,-9.419 -17.463,2.851 -22.996,5.999 -4.669,2.656 -12.172,1.741 -10.999,6.999 2.608,3.185 4.331,-2.935 8.999,-1 0.482,3.149 -3.068,2.264 -2,5.999 7.77,-5.031 15.28,-1.773 21.998,2 3.291,-0.375 2.016,-5.316 5.998,-5 8.93,4.735 7.313,20.017997 18.998,21.996997 l 0,4 c -0.42,2.246 -5.305,0.027 -5.999,2 l 0,6.999 c 3.808,1.525 9.326,1.339 8.999,6.999 -3.592,0.075 -8.143,-0.81 -8.999,2 0.763,5.903 9.246,4.085 9.999,9.999 7.553,-0.221 15.18,-0.516 17.998,4 -2.169,-0.168 -0.453,3.546 -1,5 -8.876,-2.209 -9.061,4.271 -13.998,5.999 -1.578,-3.421 -6.688,-3.311 -11.999,-3 0.681,8.652 7.544,11.12 10.999,16.998 -4.006,8.326 -7.766,16.899 -6,30.996 -3.213,-0.879 -1.37,3.296 -4,3 -1.906,-0.426 -1.809,-2.857 -4.998,-2 -3.039,6.678 -12.652,4.826 -20.998,3 0.119,6.451 -4.211,8.454 -7.999,10.999 -4.206,-2.459 -5.505,-7.827 -8.999,-10.999 -2.933,1.4 0.934,9.598 -2,10.999 -8.242,-1.911 -9.771,2.893 -15.998,3 -2.045,-1.621 0.046,-7.378 -1.999,-8.999 l -6.999,0 c -0.723,5.721 5.721,4.278 4.999,9.999 -4.565,2.767 -1.106,13.558 -7.999,13.998 -1.316,-2.35 -4.511,-2.821 -6.999,-4 -0.271,-7.394 -6.846,-8.486 -5.999,-16.998 9.578,-3.753 18.207,-8.456 24.996,-14.998 12.138,2.676 18.068,-5.345 25.997,-1 0.547,-1.453 -1.168,-5.168 1,-5 7.97,-0.362 9.3,-7.365 18.997,-5.999 1.537,-3.319 -4.731,-3.778 -1,-6 3.082,-0.748 1.22,3.447 5,2 5.016,-9.382 3.428,-24.646 -3,-30.996 2.357,-4.975 11.119,-3.546 11.999,-9.999 -3.636,-4.471 -4.184,-8.521 -2.999,-15.998 -7.516,-5.816 -4.314,-22.35 -14.999,-24.997 l 0,19.998 c -4.855,2.477 -8.418,6.246 -9.999,11.998 -12.846,5.186 -22.699,25.86 -41.994,14.999 -4.995,4.67 -14.16,5.17 -13.998,14.998 -4.19,4.142 -13.248,3.417 -14.998,9.999 10.122,4.542 16.794,12.536 14.998,28.997 -9.439,1.559 -16.252,5.745 -26.997,5.999 1.149,-11.754 -0.1,-15.475 2,-23.997 -6.559,0.226 -13.364,0.7 -13.999,-4.999 2.221,-1.779 3.904,-4.096 3,-8.999 -13.164,-5.396 -22.084,7.166 -29.997,6.999 2.038,-5.295 6.289,-8.376 7.999,-13.998 -15.775,-0.444 -17.148,13.515 -33.996,11.999 -0.692,5.691 4.745,5.254 7.999,6.999 -0.197,2.863 -0.125,5.457 3,5 3.777,-1.889 7.222,-4.11 10.999,-6 1.006,4.66 9.664,1.668 12.999,4 l 0,5 c -12.82,0.512 -19.145,7.518 -25.997,13.998 2.078,3.255 5.462,5.203 7.999,7.999 -1.538,12.869 12.738,9.926 8.999,24.997 -0.994,2.672 -8.658,-1.326 -7.999,3 1.4,2.933 9.599,-0.933 10.999,2 -4.689,6.31 -4.967,17.031 -14.999,17.998 -0.142,11.523 -14.272,9.058 -11.999,22.997 -13.125,0.539 -10.863,16.467 -25.997,14.998 -1.872,2.794 -4.239,5.094 -5,8.999 -15.45,1.856 -24.11,-0.502 -32.996,8.999 -10.683,1.982 -21.43,3.9 -25.997,11.998 0.163,4.504 6.187,3.146 6,7.999 -5.936,5.063 -7.967,14.03 -16.998,15.998 -2.32,-3.346 -7.007,-4.324 -6.999,-9.999 1.604,-7.394 11.022,-6.975 16.998,-9.998 -6.896,-0.437 -4.144,-10.521 -8.999,-12.999 -16.102,0.896 -20.771,13.224 -31.996,18.998 -2.477,11.42 2.636,13.371 6,17.998 0.642,0.883 -0.551,3.045 0,3.999 1.868,3.237 10.068,7.133 11.999,10.999 2.28,4.566 1.813,6.76 5.999,8.999 l 0,30.996 c -5.527,9.471 -14.221,15.775 -25.997,18.997 -2.463,9.869 -12.5,12.164 -18.998,17.998 l 0,-16.998 c -1.659,-1.674 -5.871,-0.796 -8.999,-1 1.903,-6.235 -3.187,-5.479 -6,-6.999 l 0,-9.999 c -5.737,-0.596 -7.133,-5.531 -14.998,-3.999 -0.467,-3.532 1.634,-9.634 -3,-8.999 -4.497,3.169 -6.683,8.648 -5.999,16.998 -3.809,6.19 -8.7,11.298 -8.999,20.997 0.694,1.973 5.579,-0.246 5.999,2 -1.832,10.164 5.029,11.636 3,21.997 13,0.665 15.985,11.345 23.997,16.998 l 0,23.997 c 3.544,4.788 7.158,9.507 6,18.997 1.667,1.334 6.363,-0.363 5.999,3 -1.063,2.27 -6.285,0.381 -8.999,1 -4.47,-13.194 -24.104,-11.225 -23.997,-28.996 -2.368,-1.632 -5.449,-2.551 -6,-6 3.333,-3.238 -2.007,-12.67 0,-20.997 -5.149,-2.85 -7.846,-8.151 -8.999,-14.998 -0.694,-1.973 -5.579,0.246 -6,-2 -2.162,-14.747 8.907,-28.005 3,-36.995 8.495,-13.319 -3.838,-29.558 0,-47.994 -9.094,1.579 -12.691,13.962 -23.997,9.999 0.934,-8.979 6.981,-23.449 0,-30.996 -0.989,-3.988 2.988,-3.011 2,-6.999 -8.787,-0.545 -8.037,-10.627 -7.999,-19.998 -8.309,4.023 -15.26,9.403 -28.997,7.999 -0.591,2.076 -1.924,3.409 -3.999,4 l 0,7.999 c -5.057,0.608 -3.956,7.376 -10.999,5.999 -6.879,11.451 -20.865,15.797 -24.997,29.996 -3.664,0.003 -2.653,4.68 -7.999,3 0.082,6.748 -6.884,6.447 -9.999,9.998 3.43,21.761 -8.516,28.146 -8.999,45.995 -8.684,5.647 -7.41,21.253 -17.998,24.996 -6.318,-23.345 -1.492,-57.834 -3,-85.989 0.407,-1.926 3.876,-0.789 3,-3.999 -1.306,-11.971 4.308,-17.023 6,-25.997 -4.086,-0.42 -4.042,3.291 -8.999,2 -1.736,-9.068 2.017,-12.648 5,-16.998 -3.613,-3.052 -1.399,-11.933 -2,-17.998 -4.056,0.276 -5.486,3.18 -10.999,2 -32.915,61.899 -52.924,127.51 -56.993,214.97 -4.428,95.171 20.35,174.65 52.993,239.97 48.611,97.27001 126.67,174.84001 222.97,222.97001 49.285,24.63099 110.71,46.80899 172.98,50.99399 108.87,7.318 197.73,-12.396 274.96,-50.99399 98.13,-49.04 174.35,-125.68 222.97,-222.97001 25.042,-50.11 46.771,-110.22 50.993,-172.98 6.514,-96.813 -8.631,-177.62 -37.995,-246.97 -44.66,-105.8 -117.2,-185.88 -215.86,-240 -17.219,-9.447 -48.949,-29.403997 -68.992,-28.996997 -1.771,-0.895 -1.273,-4.058 -4.999,-3 -6.782,2.899 -5.732,2.029 -12.998,0 1.092,8.907 13.342,6.656 16.998,12.999 2.479,11.143997 -8.66,8.670997 -6,19.996997 -4.073,0.926 -4.131,5.868 -8.999,6 4.254,-15.865 -22.478,-16.403 -20.997,-35.995997 7.152,1.486 6.398,-4.933 7.999,-8.999 -5.289,-1.623 -3.13,4.203 -7.999,3 -0.559,-2.774 -3.44,-3.225 -3.999,-6 l -9.999,0 c -2.39,1.261 0.56,7.88 -1.99,8.995 z"
           id="path5592" />
        <path
           inkscape:connector-curvature="0"
           d="m 516.98,525.94 0,8.999 c -8.365,-1.699 -5.861,7.47 -13.999,5.999 -0.877,4.456 -0.787,9.878 -5.999,9.998 -1.542,4.209 5.174,0.159 5,3 -0.372,4.653 -6.883,0.967 -7,-1 -2.319,3.348 -3.776,7.556 -6.999,9.999 4.117,8.548 5.946,19.384 13.999,23.997 -1.468,3.198 -4.305,5.027 -3,10.998 l -5.999,0 0,-4.999 c -3.735,-1.069 -2.85,2.483 -6,2 -0.889,-3.444 -4.418,-4.247 -5.999,-6.999 -0.55,-2.217 1.909,-1.424 2,-3 -5.647,-2.685 -2.991,-13.673 -7.999,-16.998 -6.554,4.444 -1.32,20.678 -3,29.996 l -11.999,0 c 0.451,-7.215 4.833,-10.497 3,-19.997 -1.659,-1.674 -5.871,-0.796 -8.999,-1 2.135,-13.581 6.36,-21.459 3,-32.996 3.581,0.582 3.04,-2.959 3,-5.999 l 5,0 c 3.97,-22.9 35.33,-0.89 52,-12 z m -24,20.99 c 4.956,-1.71 6.598,-6.734 7.999,-11.998 l -21.998,0 c 4.84,3.84 11.42,5.92 14,12 z m -24,-5 0,3.999 c 3.95,1.271 15.584,2.506 17.998,-1 -0.01,-6.53 -13.67,-4.03 -18,-3 z"
           id="path5594" />
        <path
           inkscape:connector-curvature="0"
           d="m 546.98,516.94 3,0 c 1.625,3.276 -0.227,3.822 0,7.999 3.988,0.988 3.011,-2.988 6.998,-2 0.354,1.313 1.761,1.573 2,3 1.366,4.365 -3.871,2.127 -2.999,5.999 0.26,4.739 6.9,3.099 5.999,8.999 -9.986,-2.321 -8.43,6.9 -14.998,7.999 0.126,4.54 4.4,4.931 5.999,7.999 -0.902,3.764 -3.728,5.604 -8.999,4.999 -2.41,-17.48 -1.72,-28.84 3,-45 z"
           id="path5596" />
      </g>
    </g>
    <path
       sodipodi:nodetypes="cccc"
       id="path732"
       d="m 1234.8128,-514.68849 0,21.68054 -31.1099,0 0,-21.68054"
       style="fill:none;fill-opacity:1;fill-rule:evenodd;stroke:#586e7f;stroke-width:4;stroke-miterlimit:10;stroke-dasharray:none;stroke-opacity:1"
       inkscape:connector-curvature="0" />
    <path
       style="fill:none;fill-opacity:1;stroke:#586e7f;stroke-width:4;stroke-miterlimit:4;stroke-dasharray:none;stroke-opacity:1"
       inkscape:transform-center-y="-3.9014959"
       d="m 1194.027,-505.73318 12.6154,-11.70451 12.6155,-11.7045 12.6154,11.7045 12.6155,11.70451"
       id="path4772"
       inkscape:connector-curvature="0"
       sodipodi:nodetypes="ccccc"
       inkscape:transform-center-x="-3.8309369e-05" />
    <path
       style="fill:none;fill-rule:evenodd;stroke:#586e7f;stroke-width:4;stroke-linecap:butt;stroke-linejoin:miter;stroke-miterlimit:4;stroke-dasharray:none;stroke-opacity:1"
       d="m 1234.0182,-439.3169 55.2036,0"
       id="path4832"
       inkscape:connector-curvature="0" />
    <path
       inkscape:connector-curvature="0"
       style="fill:none;fill-opacity:1;fill-rule:evenodd;stroke:#586e7f;stroke-width:4;stroke-miterlimit:10;stroke-dasharray:none;stroke-opacity:1"
       d="m 1234.8128,-454.68849 0,21.68054 -31.1099,0 0,-21.68054"
       id="path4834"
       sodipodi:nodetypes="cccc" />
    <path
       inkscape:transform-center-x="-3.8309369e-05"
       sodipodi:nodetypes="ccccc"
       inkscape:connector-curvature="0"
       id="path4836"
       d="m 1194.027,-445.73318 12.6154,-11.70451 12.6155,-11.7045 12.6154,11.7045 12.6155,11.70451"
       inkscape:transform-center-y="-3.9014959"
       style="fill:none;fill-opacity:1;stroke:#586e7f;stroke-width:4;stroke-miterlimit:4;stroke-dasharray:none;stroke-opacity:1" />
    <path
       inkscape:connector-curvature="0"
       id="path4840"
       d="m 1234.0182,-379.3169 55.2036,0"
       style="fill:none;fill-rule:evenodd;stroke:#586e7f;stroke-width:4;stroke-linecap:butt;stroke-linejoin:miter;stroke-miterlimit:4;stroke-dasharray:none;stroke-opacity:1" />
    <path
       sodipodi:nodetypes="cccc"
       id="path4842"
       d="m 1234.8128,-394.68849 0,21.68054 -31.1099,0 0,-21.68054"
       style="fill:none;fill-opacity:1;fill-rule:evenodd;stroke:#586e7f;stroke-width:4;stroke-miterlimit:10;stroke-dasharray:none;stroke-opacity:1"
       inkscape:connector-curvature="0" />
    <path
       style="fill:none;fill-opacity:1;stroke:#586e7f;stroke-width:4;stroke-miterlimit:4;stroke-dasharray:none;stroke-opacity:1"
       inkscape:transform-center-y="-3.9014959"
       d="m 1194.027,-385.73318 12.6154,-11.70451 12.6155,-11.7045 12.6154,11.7045 12.6155,11.70451"
       id="path4844"
       inkscape:connector-curvature="0"
       sodipodi:nodetypes="ccccc"
       inkscape:transform-center-x="-3.8309369e-05" />
    <path
       id="path4848"
       style="fill:none;fill-rule:evenodd;stroke:#586e7f;stroke-width:4;stroke-linecap:butt;stroke-linejoin:miter;stroke-miterlimit:4;stroke-dasharray:none;stroke-opacity:1"
       d="m 1234.0182,-319.3169 55.2036,0 0,-180 -55.2036,0"
       inkscape:connector-curvature="0"
       sodipodi:nodetypes="cccc" />
    <path
       inkscape:connector-curvature="0"
       style="fill:none;fill-opacity:1;fill-rule:evenodd;stroke:#586e7f;stroke-width:4;stroke-miterlimit:10;stroke-dasharray:none;stroke-opacity:1"
       d="m 1234.8128,-334.68849 0,21.68054 -31.1099,0 0,-21.68054"
       id="path4850"
       sodipodi:nodetypes="cccc" />
    <path
       inkscape:transform-center-x="-3.8309369e-05"
       sodipodi:nodetypes="ccccc"
       inkscape:connector-curvature="0"
       id="path4852"
       d="m 1194.027,-325.73318 12.6154,-11.70451 12.6155,-11.7045 12.6154,11.7045 12.6155,11.70451"
       inkscape:transform-center-y="-3.9014959"
       style="fill:none;fill-opacity:1;stroke:#586e7f;stroke-width:4;stroke-miterlimit:4;stroke-dasharray:none;stroke-opacity:1" />
    <path
       inkscape:connector-curvature="0"
       id="path4909"
       d="m 1449.8703,-439.3169 -55.2036,0"
       style="fill:none;fill-rule:evenodd;stroke:#586e7f;stroke-width:4;stroke-linecap:butt;stroke-linejoin:miter;stroke-miterlimit:4;stroke-dasharray:none;stroke-opacity:1" />
    <path
       sodipodi:nodetypes="ccccc"
       id="path4911"
       d="m 1449.0757,-543.01287 0,120.09912 63.9161,0 0,-120.09912 z"
       style="fill:none;fill-opacity:1;fill-rule:evenodd;stroke:#586e7f;stroke-width:4;stroke-miterlimit:10;stroke-dasharray:none;stroke-opacity:1"
       inkscape:connector-curvature="0" />
    <path
       style="fill:none;fill-rule:evenodd;stroke:#586e7f;stroke-width:4;stroke-linecap:butt;stroke-linejoin:miter;stroke-miterlimit:4;stroke-dasharray:none;stroke-opacity:1"
       d="m 1449.8703,-379.3169 -55.2036,0"
       id="path4915"
       inkscape:connector-curvature="0" />
    <path
       inkscape:connector-curvature="0"
       style="fill:none;fill-opacity:1;fill-rule:evenodd;stroke:#586e7f;stroke-width:4;stroke-miterlimit:10;stroke-dasharray:none;stroke-opacity:1"
       d="m 1449.0757,-394.68849 0,21.68054 31.1099,0 0,-21.68054"
       id="path4917"
       sodipodi:nodetypes="cccc" />
    <path
       inkscape:transform-center-x="4.7205409e-05"
       sodipodi:nodetypes="ccccc"
       inkscape:connector-curvature="0"
       id="path4919"
       d="m 1489.8615,-385.73318 -12.6154,-11.70451 -12.6155,-11.7045 -12.6154,11.7045 -12.6155,11.70451"
       inkscape:transform-center-y="-3.9014959"
       style="fill:none;fill-opacity:1;stroke:#586e7f;stroke-width:4;stroke-miterlimit:4;stroke-dasharray:none;stroke-opacity:1" />
    <path
       sodipodi:nodetypes="cccc"
       inkscape:connector-curvature="0"
       d="m 1449.8703,-319.3169 -55.2036,0 0,-180 55.2036,0"
       style="fill:none;fill-rule:evenodd;stroke:#586e7f;stroke-width:4;stroke-linecap:butt;stroke-linejoin:miter;stroke-miterlimit:4;stroke-dasharray:none;stroke-opacity:1"
       id="path4921" />
    <path
       sodipodi:nodetypes="cccc"
       id="path4923"
       d="m 1449.0757,-334.68849 0,21.68054 31.1099,0 0,-21.68054"
       style="fill:none;fill-opacity:1;fill-rule:evenodd;stroke:#586e7f;stroke-width:4;stroke-miterlimit:10;stroke-dasharray:none;stroke-opacity:1"
       inkscape:connector-curvature="0" />
    <path
       style="fill:none;fill-opacity:1;stroke:#586e7f;stroke-width:4;stroke-miterlimit:4;stroke-dasharray:none;stroke-opacity:1"
       inkscape:transform-center-y="-3.9014959"
       d="m 1489.8615,-325.73318 -12.6154,-11.70451 -12.6155,-11.7045 -12.6154,11.7045 -12.6155,11.70451"
       id="path4925"
       inkscape:connector-curvature="0"
       sodipodi:nodetypes="ccccc"
       inkscape:transform-center-x="4.7205409e-05" />
    <text
       xml:space="preserve"
       style="font-style:normal;font-weight:normal;font-size:40px;line-height:125%;font-family:sans-serif;letter-spacing:0px;word-spacing:0px;fill:#586e7f;fill-opacity:1;stroke:none;stroke-width:1px;stroke-linecap:butt;stroke-linejoin:miter;stroke-opacity:1"
       x="1397.9128"
       y="-268.17484"
       id="text5703"
       sodipodi:linespacing="125%"><tspan
         sodipodi:role="line"
         id="tspan5705"
         x="1397.9128"
         y="-268.17484"
         style="font-size:25px;fill:#586e7f;fill-opacity:1">143.2.96.*</tspan></text>
    <path
       inkscape:connector-curvature="0"
       id="path5718"
       d="m 1290.0182,-457.3169 39.6417,0 0,-97.34745"
       style="fill:none;fill-rule:evenodd;stroke:#586e7f;stroke-width:4;stroke-linecap:butt;stroke-linejoin:miter;stroke-miterlimit:4;stroke-dasharray:none;stroke-opacity:1"
       sodipodi:nodetypes="cc" />
    <path
       sodipodi:nodetypes="cc"
       style="fill:none;fill-rule:evenodd;stroke:#586e7f;stroke-width:4;stroke-linecap:butt;stroke-linejoin:miter;stroke-miterlimit:4;stroke-dasharray:none;stroke-opacity:1"
       d="m 1395.6599,-457.3169 -39.6417,0 0,-97.34745"
       id="path5720"
       inkscape:connector-curvature="0" />
    <path
       sodipodi:nodetypes="ccc"
       style="fill:none;fill-rule:evenodd;stroke:#586e7f;stroke-width:4;stroke-linecap:butt;stroke-linejoin:miter;stroke-miterlimit:4;stroke-dasharray:none;stroke-opacity:1"
       d="m 1687.9105,-488.1018 0,-74.13026 -318.1584,0"
       id="path5722"
       inkscape:connector-curvature="0" />
    <text
       sodipodi:linespacing="125%"
       id="text5724"
       y="-309.39288"
       x="1663.9681"
       style="font-style:normal;font-weight:normal;font-size:40px;line-height:125%;font-family:sans-serif;letter-spacing:0px;word-spacing:0px;fill:#586e7f;fill-opacity:1;stroke:none;stroke-width:1px;stroke-linecap:butt;stroke-linejoin:miter;stroke-opacity:1"
       xml:space="preserve"><tspan
         style="font-size:25px;fill:#586e7f;fill-opacity:1"
         y="-309.39288"
         x="1663.9681"
         id="tspan5726"
         sodipodi:role="line">*.*.*.*</tspan></text>
    <rect
       style="fill:#586e7f;fill-opacity:1;stroke:#586e7f;stroke-width:4;stroke-miterlimit:4;stroke-dasharray:none;stroke-opacity:1"
       id="rect5739"
       width="7.1500673"
       height="10.935397"
       x="1458.6769"
       y="-531.5318" />
    <rect
       style="fill:#586e7f;fill-opacity:1;stroke:#586e7f;stroke-width:4;stroke-miterlimit:4;stroke-dasharray:none;stroke-opacity:1"
       id="rect5743"
       width="7.1500673"
       height="10.935397"
       x="1477.6769"
       y="-531.5318" />
    <rect
       y="-531.5318"
       x="1496.6769"
       height="10.935397"
       width="7.1500673"
       id="rect5745"
       style="fill:#586e7f;fill-opacity:1;stroke:#586e7f;stroke-width:4;stroke-miterlimit:4;stroke-dasharray:none;stroke-opacity:1" />
    <rect
       style="fill:#586e7f;fill-opacity:1;stroke:#586e7f;stroke-width:4;stroke-miterlimit:4;stroke-dasharray:none;stroke-opacity:1"
       id="rect5747"
       width="7.1500673"
       height="10.935397"
       x="1458.6769"
       y="-487.5318" />
    <rect
       y="-487.5318"
       x="1477.6769"
       height="10.935397"
       width="7.1500673"
       id="rect5749"
       style="fill:#586e7f;fill-opacity:1;stroke:#586e7f;stroke-width:4;stroke-miterlimit:4;stroke-dasharray:none;stroke-opacity:1" />
    <rect
       style="fill:#586e7f;fill-opacity:1;stroke:#586e7f;stroke-width:4;stroke-miterlimit:4;stroke-dasharray:none;stroke-opacity:1"
       id="rect5751"
       width="7.1500673"
       height="10.935397"
       x="1496.6769"
       y="-487.5318" />
    <rect
       y="-509.5318"
       x="1458.6769"
       height="10.935397"
       width="7.1500673"
       id="rect5753"
       style="fill:#586e7f;fill-opacity:1;stroke:#586e7f;stroke-width:4;stroke-miterlimit:4;stroke-dasharray:none;stroke-opacity:1" />
    <rect
       style="fill:#586e7f;fill-opacity:1;stroke:#586e7f;stroke-width:4;stroke-miterlimit:4;stroke-dasharray:none;stroke-opacity:1"
       id="rect5755"
       width="7.1500673"
       height="10.935397"
       x="1477.6769"
       y="-509.5318" />
    <rect
       y="-509.5318"
       x="1496.6769"
       height="10.935397"
       width="7.1500673"
       id="rect5757"
       style="fill:#586e7f;fill-opacity:1;stroke:#586e7f;stroke-width:4;stroke-miterlimit:4;stroke-dasharray:none;stroke-opacity:1" />
    <rect
       y="-465.5318"
       x="1458.6769"
       height="10.935397"
       width="7.1500673"
       id="rect5759"
       style="fill:#586e7f;fill-opacity:1;stroke:#586e7f;stroke-width:4;stroke-miterlimit:4;stroke-dasharray:none;stroke-opacity:1" />
    <rect
       y="-465.5318"
       x="1477.6769"
       height="10.935397"
       width="7.1500673"
       id="rect5761"
       style="fill:#586e7f;fill-opacity:1;stroke:#586e7f;stroke-width:4;stroke-miterlimit:4;stroke-dasharray:none;stroke-opacity:1" />
    <rect
       style="fill:#586e7f;fill-opacity:1;stroke:#586e7f;stroke-width:4;stroke-miterlimit:4;stroke-dasharray:none;stroke-opacity:1"
       id="rect5763"
       width="7.1500673"
       height="10.935397"
       x="1496.6769"
       y="-465.5318" />
    <rect
       style="fill:#586e7f;fill-opacity:1;stroke:#586e7f;stroke-width:4;stroke-miterlimit:4;stroke-dasharray:none;stroke-opacity:1"
       id="rect5765"
       width="7.1500673"
       height="10.935397"
       x="1477.6769"
       y="-435.5318" />
  </g>
</svg>
